# Blender v2.90.0 OBJ File: '3.blend'
# www.blender.org
mtllib 3.mtl
o Text
v -0.255477 0.159137 0.482260
v -0.336945 0.159137 0.374856
v -0.373865 0.159137 0.239788
v -0.227405 0.159137 0.220260
v -0.193333 0.159137 0.327358
v -0.141564 0.159137 0.399673
v -0.074335 0.159137 0.440864
v 0.006116 0.159137 0.454595
v 0.101417 0.159137 0.436694
v 0.180647 0.159137 0.382993
v 0.234044 0.159137 0.302847
v 0.251843 0.159137 0.205614
v 0.235366 0.159137 0.113568
v 0.185936 0.159137 0.039219
v 0.111079 0.159137 -0.009906
v 0.018321 0.159137 -0.026281
v -0.028261 0.159137 -0.022212
v -0.085014 0.159137 -0.010007
v -0.068741 0.159137 -0.138566
v -0.055519 0.159137 -0.137346
v -0.045144 0.159137 -0.136939
v 0.043748 0.159137 -0.149144
v 0.123284 0.159137 -0.185759
v 0.179427 0.159137 -0.247801
v 0.198141 0.159137 -0.336287
v 0.184512 0.159137 -0.409924
v 0.143626 0.159137 -0.469728
v 0.081177 0.159137 -0.509394
v 0.002862 0.159137 -0.522616
v -0.075453 0.159137 -0.509191
v -0.139530 0.159137 -0.468914
v -0.186315 0.159137 -0.401787
v -0.212759 0.159137 -0.307809
v -0.359219 0.159137 -0.333846
v -0.315281 0.159137 -0.464541
v -0.237169 0.159137 -0.562079
v -0.130376 0.159137 -0.622799
v -0.000393 0.159137 -0.643038
v 0.093382 0.159137 -0.632562
v 0.179427 0.159137 -0.601135
v 0.251945 0.159137 -0.551603
v 0.305138 0.159137 -0.486815
v 0.337786 0.159137 -0.412161
v 0.348669 0.159137 -0.333032
v 0.338295 0.159137 -0.259192
v 0.307172 0.159137 -0.192268
v 0.255708 0.159137 -0.135312
v 0.184309 0.159137 -0.091374
v 0.278287 0.159137 -0.053844
v 0.348669 0.159137 0.009927
v 0.392607 0.159137 0.096481
v 0.407253 0.159137 0.202359
v 0.378775 0.159137 0.346683
v 0.293340 0.159137 0.467207
v 0.164374 0.159137 0.548675
v 0.005303 0.159137 0.575831
v -0.138411 0.159137 0.552438
v -0.255477 -0.159137 0.482260
v -0.336945 -0.159137 0.374856
v -0.373865 -0.159137 0.239788
v -0.227405 -0.159137 0.220260
v -0.193333 -0.159137 0.327358
v -0.141564 -0.159137 0.399673
v -0.074335 -0.159137 0.440864
v 0.006116 -0.159137 0.454595
v 0.101417 -0.159137 0.436694
v 0.180647 -0.159137 0.382993
v 0.234044 -0.159137 0.302847
v 0.251843 -0.159137 0.205614
v 0.235366 -0.159137 0.113568
v 0.185936 -0.159137 0.039219
v 0.111079 -0.159137 -0.009906
v 0.018321 -0.159137 -0.026281
v -0.028261 -0.159137 -0.022212
v -0.085014 -0.159137 -0.010007
v -0.068741 -0.159137 -0.138566
v -0.055519 -0.159137 -0.137346
v -0.045144 -0.159137 -0.136939
v 0.043748 -0.159137 -0.149144
v 0.123284 -0.159137 -0.185759
v 0.179427 -0.159137 -0.247801
v 0.198141 -0.159137 -0.336287
v 0.184512 -0.159137 -0.409924
v 0.143626 -0.159137 -0.469728
v 0.081177 -0.159137 -0.509394
v 0.002862 -0.159137 -0.522616
v -0.075453 -0.159137 -0.509191
v -0.139530 -0.159137 -0.468914
v -0.186315 -0.159137 -0.401787
v -0.212759 -0.159137 -0.307809
v -0.359219 -0.159137 -0.333846
v -0.315281 -0.159137 -0.464541
v -0.237169 -0.159137 -0.562079
v -0.130376 -0.159137 -0.622799
v -0.000393 -0.159137 -0.643038
v 0.093382 -0.159137 -0.632562
v 0.179427 -0.159137 -0.601135
v 0.251945 -0.159137 -0.551603
v 0.305138 -0.159137 -0.486815
v 0.337786 -0.159137 -0.412161
v 0.348669 -0.159137 -0.333032
v 0.338295 -0.159137 -0.259192
v 0.307172 -0.159137 -0.192268
v 0.255708 -0.159137 -0.135312
v 0.184309 -0.159137 -0.091374
v 0.278287 -0.159137 -0.053844
v 0.348669 -0.159137 0.009927
v 0.392607 -0.159137 0.096481
v 0.407253 -0.159137 0.202359
v 0.378775 -0.159137 0.346683
v 0.293340 -0.159137 0.467207
v 0.164374 -0.159137 0.548675
v 0.005303 -0.159137 0.575831
v -0.138411 -0.159137 0.552438
v -0.255477 -0.159137 0.482260
v -0.255477 0.159137 0.482260
v -0.336945 -0.159137 0.374856
v -0.336945 0.159137 0.374856
v -0.373865 -0.159137 0.239788
v -0.373865 0.159137 0.239788
v -0.227405 -0.159137 0.220260
v -0.227405 0.159137 0.220260
v -0.193333 -0.159137 0.327358
v -0.193333 0.159137 0.327358
v -0.141564 -0.159137 0.399673
v -0.141564 0.159137 0.399673
v -0.074335 -0.159137 0.440864
v -0.074335 0.159137 0.440864
v 0.006116 -0.159137 0.454595
v 0.006116 0.159137 0.454595
v 0.101417 -0.159137 0.436694
v 0.101417 0.159137 0.436694
v 0.180647 -0.159137 0.382993
v 0.180647 0.159137 0.382993
v 0.234044 -0.159137 0.302847
v 0.234044 0.159137 0.302847
v 0.251843 -0.159137 0.205614
v 0.251843 0.159137 0.205614
v 0.235366 -0.159137 0.113568
v 0.235366 0.159137 0.113568
v 0.185936 -0.159137 0.039219
v 0.185936 0.159137 0.039219
v 0.111079 -0.159137 -0.009906
v 0.111079 0.159137 -0.009906
v 0.018321 -0.159137 -0.026281
v 0.018321 0.159137 -0.026281
v -0.028261 -0.159137 -0.022212
v -0.028261 0.159137 -0.022212
v -0.085014 -0.159137 -0.010007
v -0.085014 0.159137 -0.010007
v -0.068741 -0.159137 -0.138566
v -0.068741 0.159137 -0.138566
v -0.055519 -0.159137 -0.137346
v -0.055519 0.159137 -0.137346
v -0.045144 -0.159137 -0.136939
v -0.045144 0.159137 -0.136939
v 0.043748 -0.159137 -0.149144
v 0.043748 0.159137 -0.149144
v 0.123284 -0.159137 -0.185759
v 0.123284 0.159137 -0.185759
v 0.179427 -0.159137 -0.247801
v 0.179427 0.159137 -0.247801
v 0.198141 -0.159137 -0.336287
v 0.198141 0.159137 -0.336287
v 0.184512 -0.159137 -0.409924
v 0.184512 0.159137 -0.409924
v 0.143626 -0.159137 -0.469728
v 0.143626 0.159137 -0.469728
v 0.081177 -0.159137 -0.509394
v 0.081177 0.159137 -0.509394
v 0.002862 -0.159137 -0.522616
v 0.002862 0.159137 -0.522616
v -0.075453 -0.159137 -0.509191
v -0.075453 0.159137 -0.509191
v -0.139530 -0.159137 -0.468914
v -0.139530 0.159137 -0.468914
v -0.186315 -0.159137 -0.401787
v -0.186315 0.159137 -0.401787
v -0.212759 -0.159137 -0.307809
v -0.212759 0.159137 -0.307809
v -0.359219 -0.159137 -0.333846
v -0.359219 0.159137 -0.333846
v -0.315281 -0.159137 -0.464541
v -0.315281 0.159137 -0.464541
v -0.237169 -0.159137 -0.562079
v -0.237169 0.159137 -0.562079
v -0.130376 -0.159137 -0.622799
v -0.130376 0.159137 -0.622799
v -0.000393 -0.159137 -0.643038
v -0.000393 0.159137 -0.643038
v 0.093382 -0.159137 -0.632562
v 0.093382 0.159137 -0.632562
v 0.179427 -0.159137 -0.601135
v 0.179427 0.159137 -0.601135
v 0.251945 -0.159137 -0.551603
v 0.251945 0.159137 -0.551603
v 0.305138 -0.159137 -0.486815
v 0.305138 0.159137 -0.486815
v 0.337786 -0.159137 -0.412161
v 0.337786 0.159137 -0.412161
v 0.348669 -0.159137 -0.333032
v 0.348669 0.159137 -0.333032
v 0.338295 -0.159137 -0.259192
v 0.338295 0.159137 -0.259192
v 0.307172 -0.159137 -0.192268
v 0.307172 0.159137 -0.192268
v 0.255708 -0.159137 -0.135312
v 0.255708 0.159137 -0.135312
v 0.184309 -0.159137 -0.091374
v 0.184309 0.159137 -0.091374
v 0.278287 -0.159137 -0.053844
v 0.278287 0.159137 -0.053844
v 0.348669 -0.159137 0.009927
v 0.348669 0.159137 0.009927
v 0.392607 -0.159137 0.096481
v 0.392607 0.159137 0.096481
v 0.407253 -0.159137 0.202359
v 0.407253 0.159137 0.202359
v 0.378775 -0.159137 0.346683
v 0.378775 0.159137 0.346683
v 0.293340 -0.159137 0.467207
v 0.293340 0.159137 0.467207
v 0.164374 -0.159137 0.548675
v 0.164374 0.159137 0.548675
v 0.005303 -0.159137 0.575831
v 0.005303 0.159137 0.575831
v -0.138411 -0.159137 0.552438
v -0.138411 0.159137 0.552438
vt 0.642857 0.000000
vt 0.678571 0.000000
vt 0.660714 0.000000
vt 0.696429 0.000000
vt 0.625000 0.000000
vt 0.714286 0.000000
vt 0.607143 0.000000
vt 0.517857 0.000000
vt 0.500000 0.000000
vt 0.732143 0.000000
vt 0.482143 0.000000
vt 0.464286 0.000000
vt 0.535714 0.000000
vt 0.750000 0.000000
vt 0.446429 0.000000
vt 0.553571 0.000000
vt 0.589286 0.000000
vt 0.767857 0.000000
vt 0.428571 0.000000
vt 0.571429 0.000000
vt 0.410714 0.000000
vt 0.785714 0.000000
vt 0.803571 0.000000
vt 0.392857 0.000000
vt 0.821429 0.000000
vt 0.375000 0.000000
vt 0.357143 0.000000
vt 0.303571 0.000000
vt 0.339286 0.000000
vt 0.321429 0.000000
vt 0.839286 0.000000
vt 0.285714 0.000000
vt 0.857143 0.000000
vt 0.267857 0.000000
vt 0.875000 0.000000
vt 0.250000 0.000000
vt 0.232143 0.000000
vt 0.892857 0.000000
vt 0.214286 0.000000
vt 0.910714 0.000000
vt 0.196429 0.000000
vt 0.928571 0.000000
vt 0.178571 0.000000
vt 0.035714 0.000000
vt 0.071429 0.000000
vt 0.053571 0.000000
vt 0.017857 0.000000
vt 0.160714 0.000000
vt 0.089286 0.000000
vt 0.946429 0.000000
vt 0.000000 0.000000
vt 0.142857 0.000000
vt 0.107143 0.000000
vt 0.125000 0.000000
vt 0.964286 0.000000
vt 1.000000 0.000000
vt 0.982143 0.000000
vt 0.678571 0.000000
vt 0.642857 0.000000
vt 0.660714 0.000000
vt 0.696429 0.000000
vt 0.625000 0.000000
vt 0.714286 0.000000
vt 0.517857 0.000000
vt 0.607143 0.000000
vt 0.500000 0.000000
vt 0.732143 0.000000
vt 0.482143 0.000000
vt 0.464286 0.000000
vt 0.535714 0.000000
vt 0.750000 0.000000
vt 0.446429 0.000000
vt 0.553571 0.000000
vt 0.589286 0.000000
vt 0.767857 0.000000
vt 0.428571 0.000000
vt 0.571429 0.000000
vt 0.410714 0.000000
vt 0.785714 0.000000
vt 0.803571 0.000000
vt 0.392857 0.000000
vt 0.821429 0.000000
vt 0.375000 0.000000
vt 0.357143 0.000000
vt 0.339286 0.000000
vt 0.303571 0.000000
vt 0.321429 0.000000
vt 0.839286 0.000000
vt 0.285714 0.000000
vt 0.857143 0.000000
vt 0.267857 0.000000
vt 0.875000 0.000000
vt 0.250000 0.000000
vt 0.232143 0.000000
vt 0.892857 0.000000
vt 0.214286 0.000000
vt 0.910714 0.000000
vt 0.196429 0.000000
vt 0.928571 0.000000
vt 0.178571 0.000000
vt 0.071429 0.000000
vt 0.035714 0.000000
vt 0.053571 0.000000
vt 0.017857 0.000000
vt 0.160714 0.000000
vt 0.089286 0.000000
vt 0.946429 0.000000
vt 0.000000 0.000000
vt 0.142857 0.000000
vt 0.107143 0.000000
vt 0.125000 0.000000
vt 0.964286 0.000000
vt 1.000000 0.000000
vt 0.982143 0.000000
vt 0.000000 1.000000
vt 0.017544 1.000000
vt 0.017544 0.000000
vt 0.000000 0.000000
vt 0.035088 1.000000
vt 0.035088 0.000000
vt 0.052632 1.000000
vt 0.052632 0.000000
vt 0.070175 1.000000
vt 0.070175 0.000000
vt 0.087719 1.000000
vt 0.087719 0.000000
vt 0.105263 1.000000
vt 0.105263 0.000000
vt 0.122807 1.000000
vt 0.122807 0.000000
vt 0.140351 1.000000
vt 0.140351 0.000000
vt 0.157895 1.000000
vt 0.157895 0.000000
vt 0.175439 1.000000
vt 0.175439 0.000000
vt 0.192982 1.000000
vt 0.192982 0.000000
vt 0.210526 1.000000
vt 0.210526 0.000000
vt 0.228070 1.000000
vt 0.228070 0.000000
vt 0.245614 1.000000
vt 0.245614 0.000000
vt 0.263158 1.000000
vt 0.263158 0.000000
vt 0.280702 1.000000
vt 0.280702 0.000000
vt 0.298246 1.000000
vt 0.298246 0.000000
vt 0.315789 1.000000
vt 0.315789 0.000000
vt 0.333333 1.000000
vt 0.333333 0.000000
vt 0.350877 1.000000
vt 0.350877 0.000000
vt 0.368421 1.000000
vt 0.368421 0.000000
vt 0.385965 1.000000
vt 0.385965 0.000000
vt 0.403509 1.000000
vt 0.403509 0.000000
vt 0.421053 1.000000
vt 0.421053 0.000000
vt 0.438596 1.000000
vt 0.438596 0.000000
vt 0.456140 1.000000
vt 0.456140 0.000000
vt 0.473684 1.000000
vt 0.473684 0.000000
vt 0.491228 1.000000
vt 0.491228 0.000000
vt 0.508772 1.000000
vt 0.508772 0.000000
vt 0.526316 1.000000
vt 0.526316 0.000000
vt 0.543860 1.000000
vt 0.543860 0.000000
vt 0.561404 1.000000
vt 0.561404 0.000000
vt 0.578947 1.000000
vt 0.578947 0.000000
vt 0.596491 1.000000
vt 0.596491 0.000000
vt 0.614035 1.000000
vt 0.614035 0.000000
vt 0.631579 1.000000
vt 0.631579 0.000000
vt 0.649123 1.000000
vt 0.649123 0.000000
vt 0.666667 1.000000
vt 0.666667 0.000000
vt 0.684211 1.000000
vt 0.684211 0.000000
vt 0.701754 1.000000
vt 0.701754 0.000000
vt 0.719298 1.000000
vt 0.719298 0.000000
vt 0.736842 1.000000
vt 0.736842 0.000000
vt 0.754386 1.000000
vt 0.754386 0.000000
vt 0.771930 1.000000
vt 0.771930 0.000000
vt 0.789474 1.000000
vt 0.789474 0.000000
vt 0.807018 1.000000
vt 0.807018 0.000000
vt 0.824561 1.000000
vt 0.824561 0.000000
vt 0.842105 1.000000
vt 0.842105 0.000000
vt 0.859649 1.000000
vt 0.859649 0.000000
vt 0.877193 1.000000
vt 0.877193 0.000000
vt 0.894737 1.000000
vt 0.894737 0.000000
vt 0.912281 1.000000
vt 0.912281 0.000000
vt 0.929825 1.000000
vt 0.929825 0.000000
vt 0.947368 1.000000
vt 0.947368 0.000000
vt 0.964912 1.000000
vt 0.964912 0.000000
vt 0.982456 1.000000
vt 0.982456 0.000000
vt 1.000000 1.000000
vt 1.000000 0.000000
vn 0.0000 1.0000 0.0000
vn 0.0000 -1.0000 0.0000
vn -0.6676 0.0000 0.7445
vn -0.8970 0.0000 0.4420
vn -0.8333 0.0000 -0.5528
vn 0.5355 0.0000 -0.8445
vn 0.8939 0.0000 -0.4481
vn 0.6813 0.0000 -0.7320
vn 0.3517 0.0000 -0.9361
vn -0.0083 0.0000 -0.9999
vn -0.3808 0.0000 -0.9246
vn -0.7099 0.0000 -0.7043
vn -0.9270 0.0000 -0.3750
vn -1.0000 0.0000 -0.0020
vn -0.9279 0.0000 0.3727
vn -0.7050 0.0000 0.7092
vn -0.3688 0.0000 0.9295
vn -0.0438 0.0000 0.9990
vn 0.1489 0.0000 0.9888
vn -0.6761 0.0000 0.7368
vn -0.6260 0.0000 -0.7798
vn 0.0656 0.0000 -0.9978
vn -0.0486 0.0000 -0.9988
vn -0.2801 0.0000 -0.9599
vn -0.5918 0.0000 -0.8060
vn -0.8907 0.0000 -0.4546
vn -0.9999 0.0000 -0.0127
vn -0.9244 0.0000 0.3814
vn -0.6950 0.0000 0.7190
vn -0.3584 0.0000 0.9336
vn 0.0013 0.0000 1.0000
vn 0.3574 0.0000 0.9339
vn 0.6901 0.0000 0.7237
vn 0.9041 0.0000 0.4273
vn 0.5314 0.0000 0.8471
vn -0.8601 0.0000 0.5101
vn -0.8777 0.0000 -0.4792
vn -0.6490 0.0000 -0.7608
vn -0.3294 0.0000 -0.9442
vn -0.0216 0.0000 -0.9998
vn 0.2287 0.0000 -0.9735
vn 0.4571 0.0000 -0.8894
vn 0.6752 0.0000 -0.7376
vn 0.8526 0.0000 -0.5225
vn 0.9626 0.0000 -0.2710
vn 1.0000 0.0000 0.0014
vn 0.9590 0.0000 0.2835
vn 0.8337 0.0000 0.5522
vn 0.6395 0.0000 0.7688
vn 0.9963 0.0000 -0.0857
vn 0.5295 0.0000 -0.8483
vn 0.7947 0.0000 -0.6069
vn 0.9543 0.0000 -0.2989
vn 0.9996 0.0000 0.0287
vn 0.9188 0.0000 0.3947
vn 0.6880 0.0000 0.7257
vn 0.3581 0.0000 0.9337
vn 0.0038 0.0000 1.0000
vn -0.3435 0.0000 0.9391
usemtl None
s off
f 37/1/1 39/2/1 38/3/1
f 37/1/1 40/4/1 39/2/1
f 36/5/1 40/4/1 37/1/1
f 36/5/1 41/6/1 40/4/1
f 35/7/1 30/8/1 36/5/1
f 30/8/1 29/9/1 36/5/1
f 29/9/1 41/6/1 36/5/1
f 29/9/1 42/10/1 41/6/1
f 28/11/1 42/10/1 29/9/1
f 27/12/1 42/10/1 28/11/1
f 35/7/1 31/13/1 30/8/1
f 27/12/1 43/14/1 42/10/1
f 26/15/1 43/14/1 27/12/1
f 35/7/1 32/16/1 31/13/1
f 34/17/1 32/16/1 35/7/1
f 26/15/1 44/18/1 43/14/1
f 25/19/1 44/18/1 26/15/1
f 34/17/1 33/20/1 32/16/1
f 24/21/1 44/18/1 25/19/1
f 24/21/1 45/22/1 44/18/1
f 24/21/1 46/23/1 45/22/1
f 23/24/1 46/23/1 24/21/1
f 23/24/1 47/25/1 46/23/1
f 22/26/1 47/25/1 23/24/1
f 21/27/1 47/25/1 22/26/1
f 18/28/1 20/29/1 19/30/1
f 18/28/1 21/27/1 20/29/1
f 18/28/1 47/25/1 21/27/1
f 18/28/1 48/31/1 47/25/1
f 18/28/1 17/32/1 48/31/1
f 17/32/1 49/33/1 48/31/1
f 17/32/1 16/34/1 49/33/1
f 16/34/1 50/35/1 49/33/1
f 15/36/1 50/35/1 16/34/1
f 14/37/1 50/35/1 15/36/1
f 14/37/1 51/38/1 50/35/1
f 13/39/1 51/38/1 14/37/1
f 13/39/1 52/40/1 51/38/1
f 12/41/1 52/40/1 13/39/1
f 12/41/1 53/42/1 52/40/1
f 11/43/1 53/42/1 12/41/1
f 3/44/1 5/45/1 4/46/1
f 2/47/1 5/45/1 3/44/1
f 10/48/1 53/42/1 11/43/1
f 2/47/1 6/49/1 5/45/1
f 10/48/1 54/50/1 53/42/1
f 1/51/1 6/49/1 2/47/1
f 9/52/1 54/50/1 10/48/1
f 1/51/1 7/53/1 6/49/1
f 8/54/1 54/50/1 9/52/1
f 1/51/1 8/54/1 7/53/1
f 1/51/1 54/50/1 8/54/1
f 1/51/1 55/55/1 54/50/1
f 57/56/1 55/55/1 1/51/1
f 57/56/1 56/57/1 55/55/1
f 96/58/2 94/59/2 95/60/2
f 97/61/2 94/59/2 96/58/2
f 97/61/2 93/62/2 94/59/2
f 98/63/2 93/62/2 97/61/2
f 87/64/2 92/65/2 93/62/2
f 86/66/2 87/64/2 93/62/2
f 98/63/2 86/66/2 93/62/2
f 99/67/2 86/66/2 98/63/2
f 99/67/2 85/68/2 86/66/2
f 99/67/2 84/69/2 85/68/2
f 88/70/2 92/65/2 87/64/2
f 100/71/2 84/69/2 99/67/2
f 100/71/2 83/72/2 84/69/2
f 89/73/2 92/65/2 88/70/2
f 89/73/2 91/74/2 92/65/2
f 101/75/2 83/72/2 100/71/2
f 101/75/2 82/76/2 83/72/2
f 90/77/2 91/74/2 89/73/2
f 101/75/2 81/78/2 82/76/2
f 102/79/2 81/78/2 101/75/2
f 103/80/2 81/78/2 102/79/2
f 103/80/2 80/81/2 81/78/2
f 104/82/2 80/81/2 103/80/2
f 104/82/2 79/83/2 80/81/2
f 104/82/2 78/84/2 79/83/2
f 77/85/2 75/86/2 76/87/2
f 78/84/2 75/86/2 77/85/2
f 104/82/2 75/86/2 78/84/2
f 105/88/2 75/86/2 104/82/2
f 74/89/2 75/86/2 105/88/2
f 106/90/2 74/89/2 105/88/2
f 73/91/2 74/89/2 106/90/2
f 107/92/2 73/91/2 106/90/2
f 107/92/2 72/93/2 73/91/2
f 107/92/2 71/94/2 72/93/2
f 108/95/2 71/94/2 107/92/2
f 108/95/2 70/96/2 71/94/2
f 109/97/2 70/96/2 108/95/2
f 109/97/2 69/98/2 70/96/2
f 110/99/2 69/98/2 109/97/2
f 110/99/2 68/100/2 69/98/2
f 62/101/2 60/102/2 61/103/2
f 62/101/2 59/104/2 60/102/2
f 110/99/2 67/105/2 68/100/2
f 63/106/2 59/104/2 62/101/2
f 111/107/2 67/105/2 110/99/2
f 63/106/2 58/108/2 59/104/2
f 111/107/2 66/109/2 67/105/2
f 64/110/2 58/108/2 63/106/2
f 111/107/2 65/111/2 66/109/2
f 65/111/2 58/108/2 64/110/2
f 111/107/2 58/108/2 65/111/2
f 112/112/2 58/108/2 111/107/2
f 112/112/2 114/113/2 58/108/2
f 113/114/2 114/113/2 112/112/2
s 111
f 116/115/3 118/116/4 117/117/4 115/118/3
f 118/116/4 120/119/5 119/120/5 117/117/4
f 120/119/5 122/121/6 121/122/6 119/120/5
f 122/121/6 124/123/7 123/124/7 121/122/6
f 124/123/7 126/125/8 125/126/8 123/124/7
f 126/125/8 128/127/9 127/128/9 125/126/8
f 128/127/9 130/129/10 129/130/10 127/128/9
f 130/129/10 132/131/11 131/132/11 129/130/10
f 132/131/11 134/133/12 133/134/12 131/132/11
f 134/133/12 136/135/13 135/136/13 133/134/12
f 136/135/13 138/137/14 137/138/14 135/136/13
f 138/137/14 140/139/15 139/140/15 137/138/14
f 140/139/15 142/141/16 141/142/16 139/140/15
f 142/141/16 144/143/17 143/144/17 141/142/16
f 144/143/17 146/145/18 145/146/18 143/144/17
f 146/145/18 148/147/19 147/148/19 145/146/18
f 148/147/19 150/149/20 149/150/20 147/148/19
f 150/149/20 152/151/21 151/152/21 149/150/20
f 152/151/21 154/153/22 153/154/22 151/152/21
f 154/153/22 156/155/23 155/156/23 153/154/22
f 156/155/23 158/157/24 157/158/24 155/156/23
f 158/157/24 160/159/25 159/160/25 157/158/24
f 160/159/25 162/161/26 161/162/26 159/160/25
f 162/161/26 164/163/27 163/164/27 161/162/26
f 164/163/27 166/165/28 165/166/28 163/164/27
f 166/165/28 168/167/29 167/168/29 165/166/28
f 168/167/29 170/169/30 169/170/30 167/168/29
f 170/169/30 172/171/31 171/172/31 169/170/30
f 172/171/31 174/173/32 173/174/32 171/172/31
f 174/173/32 176/175/33 175/176/33 173/174/32
f 176/175/33 178/177/34 177/178/34 175/176/33
f 178/177/34 180/179/35 179/180/35 177/178/34
f 180/179/35 182/181/36 181/182/36 179/180/35
f 182/181/36 184/183/37 183/184/37 181/182/36
f 184/183/37 186/185/38 185/186/38 183/184/37
f 186/185/38 188/187/39 187/188/39 185/186/38
f 188/187/39 190/189/40 189/190/40 187/188/39
f 190/189/40 192/191/41 191/192/41 189/190/40
f 192/191/41 194/193/42 193/194/42 191/192/41
f 194/193/42 196/195/43 195/196/43 193/194/42
f 196/195/43 198/197/44 197/198/44 195/196/43
f 198/197/44 200/199/45 199/200/45 197/198/44
f 200/199/45 202/201/46 201/202/46 199/200/45
f 202/201/46 204/203/47 203/204/47 201/202/46
f 204/203/47 206/205/48 205/206/48 203/204/47
f 206/205/48 208/207/49 207/208/49 205/206/48
f 208/207/49 210/209/50 209/210/50 207/208/49
f 210/209/50 212/211/51 211/212/51 209/210/50
f 212/211/51 214/213/52 213/214/52 211/212/51
f 214/213/52 216/215/53 215/216/53 213/214/52
f 216/215/53 218/217/54 217/218/54 215/216/53
f 218/217/54 220/219/55 219/220/55 217/218/54
f 220/219/55 222/221/56 221/222/56 219/220/55
f 222/221/56 224/223/57 223/224/57 221/222/56
f 224/223/57 226/225/58 225/226/58 223/224/57
f 226/225/58 228/227/59 227/228/59 225/226/58
f 228/227/59 116/229/3 115/230/3 227/228/59
