# Blender v2.90.0 OBJ File: '5.blend'
# www.blender.org
mtllib 5.mtl
o Text
v -0.257104 0.159137 0.483887
v -0.337962 0.159137 0.377907
v -0.374679 0.159137 0.242229
v -0.220896 0.159137 0.229210
v -0.192519 0.159137 0.327562
v -0.141564 0.159137 0.398045
v -0.072911 0.159137 0.440458
v 0.008557 0.159137 0.454595
v 0.106197 0.159137 0.434660
v 0.187564 0.159137 0.374856
v 0.242486 0.159137 0.282098
v 0.260793 0.159137 0.163303
v 0.243198 0.159137 0.051221
v 0.190411 0.159137 -0.034417
v 0.109147 0.159137 -0.088729
v 0.006116 0.159137 -0.106833
v -0.061214 0.159137 -0.098799
v -0.121629 0.159137 -0.074694
v -0.172483 0.159137 -0.037774
v -0.211132 0.159137 0.008707
v -0.348641 0.159137 -0.009194
v -0.233101 0.159137 -0.621883
v 0.360060 0.159137 -0.621883
v 0.360060 0.159137 -0.481933
v -0.115933 0.159137 -0.481933
v -0.180213 0.159137 -0.161349
v -0.070165 0.159137 -0.217492
v 0.045172 0.159137 -0.236206
v 0.189191 0.159137 -0.209152
v 0.308800 0.159137 -0.127989
v 0.389352 0.159137 -0.004312
v 0.416203 0.159137 0.150284
v 0.392607 0.159137 0.301219
v 0.321818 0.159137 0.430185
v 0.186140 0.159137 0.538809
v 0.008557 0.159137 0.575017
v -0.139224 0.159137 0.552235
v -0.257104 -0.159137 0.483887
v -0.337962 -0.159137 0.377907
v -0.374679 -0.159137 0.242229
v -0.220896 -0.159137 0.229210
v -0.192519 -0.159137 0.327562
v -0.141564 -0.159137 0.398045
v -0.072911 -0.159137 0.440458
v 0.008557 -0.159137 0.454595
v 0.106197 -0.159137 0.434660
v 0.187564 -0.159137 0.374856
v 0.242486 -0.159137 0.282098
v 0.260793 -0.159137 0.163303
v 0.243198 -0.159137 0.051221
v 0.190411 -0.159137 -0.034417
v 0.109147 -0.159137 -0.088729
v 0.006116 -0.159137 -0.106833
v -0.061214 -0.159137 -0.098799
v -0.121629 -0.159137 -0.074694
v -0.172483 -0.159137 -0.037774
v -0.211132 -0.159137 0.008707
v -0.348641 -0.159137 -0.009194
v -0.233101 -0.159137 -0.621883
v 0.360060 -0.159137 -0.621883
v 0.360060 -0.159137 -0.481933
v -0.115933 -0.159137 -0.481933
v -0.180213 -0.159137 -0.161349
v -0.070165 -0.159137 -0.217492
v 0.045172 -0.159137 -0.236206
v 0.189191 -0.159137 -0.209152
v 0.308800 -0.159137 -0.127989
v 0.389352 -0.159137 -0.004312
v 0.416203 -0.159137 0.150284
v 0.392607 -0.159137 0.301219
v 0.321818 -0.159137 0.430185
v 0.186140 -0.159137 0.538809
v 0.008557 -0.159137 0.575017
v -0.139224 -0.159137 0.552235
v -0.257104 -0.159137 0.483887
v -0.257104 0.159137 0.483887
v -0.337962 -0.159137 0.377907
v -0.337962 0.159137 0.377907
v -0.374679 -0.159137 0.242229
v -0.374679 0.159137 0.242229
v -0.220896 -0.159137 0.229210
v -0.220896 0.159137 0.229210
v -0.192519 -0.159137 0.327562
v -0.192519 0.159137 0.327562
v -0.141564 -0.159137 0.398045
v -0.141564 0.159137 0.398045
v -0.072911 -0.159137 0.440458
v -0.072911 0.159137 0.440458
v 0.008557 -0.159137 0.454595
v 0.008557 0.159137 0.454595
v 0.106197 -0.159137 0.434660
v 0.106197 0.159137 0.434660
v 0.187564 -0.159137 0.374856
v 0.187564 0.159137 0.374856
v 0.242486 -0.159137 0.282098
v 0.242486 0.159137 0.282098
v 0.260793 -0.159137 0.163303
v 0.260793 0.159137 0.163303
v 0.243198 -0.159137 0.051221
v 0.243198 0.159137 0.051221
v 0.190411 -0.159137 -0.034417
v 0.190411 0.159137 -0.034417
v 0.109147 -0.159137 -0.088729
v 0.109147 0.159137 -0.088729
v 0.006116 -0.159137 -0.106833
v 0.006116 0.159137 -0.106833
v -0.061214 -0.159137 -0.098799
v -0.061214 0.159137 -0.098799
v -0.121629 -0.159137 -0.074694
v -0.121629 0.159137 -0.074694
v -0.172483 -0.159137 -0.037774
v -0.172483 0.159137 -0.037774
v -0.211132 -0.159137 0.008707
v -0.211132 0.159137 0.008707
v -0.348641 -0.159137 -0.009194
v -0.348641 0.159137 -0.009194
v -0.233101 -0.159137 -0.621883
v -0.233101 0.159137 -0.621883
v 0.360060 -0.159137 -0.621883
v 0.360060 0.159137 -0.621883
v 0.360060 -0.159137 -0.481933
v 0.360060 0.159137 -0.481933
v -0.115933 -0.159137 -0.481933
v -0.115933 0.159137 -0.481933
v -0.180213 -0.159137 -0.161349
v -0.180213 0.159137 -0.161349
v -0.070165 -0.159137 -0.217492
v -0.070165 0.159137 -0.217492
v 0.045172 -0.159137 -0.236206
v 0.045172 0.159137 -0.236206
v 0.189191 -0.159137 -0.209152
v 0.189191 0.159137 -0.209152
v 0.308800 -0.159137 -0.127989
v 0.308800 0.159137 -0.127989
v 0.389352 -0.159137 -0.004312
v 0.389352 0.159137 -0.004312
v 0.416203 -0.159137 0.150284
v 0.416203 0.159137 0.150284
v 0.392607 -0.159137 0.301219
v 0.392607 0.159137 0.301219
v 0.321818 -0.159137 0.430185
v 0.321818 0.159137 0.430185
v 0.186140 -0.159137 0.538809
v 0.186140 0.159137 0.538809
v 0.008557 -0.159137 0.575017
v 0.008557 0.159137 0.575017
v -0.139224 -0.159137 0.552235
v -0.139224 0.159137 0.552235
vt 0.555556 0.000000
vt 0.666667 0.000000
vt 0.583333 0.000000
vt 0.611111 0.000000
vt 0.638889 0.000000
vt 0.694444 0.000000
vt 0.722222 0.000000
vt 0.777778 0.000000
vt 0.750000 0.000000
vt 0.805556 0.000000
vt 0.444444 0.000000
vt 0.416667 0.000000
vt 0.388889 0.000000
vt 0.833333 0.000000
vt 0.472222 0.000000
vt 0.361111 0.000000
vt 0.500000 0.000000
vt 0.527778 0.000000
vt 0.333333 0.000000
vt 0.861111 0.000000
vt 0.305556 0.000000
vt 0.888889 0.000000
vt 0.277778 0.000000
vt 0.055556 0.000000
vt 0.111111 0.000000
vt 0.083333 0.000000
vt 0.027778 0.000000
vt 0.250000 0.000000
vt 0.916667 0.000000
vt 0.138889 0.000000
vt 0.222222 0.000000
vt 0.000000 0.000000
vt 0.166667 0.000000
vt 0.944444 0.000000
vt 0.194444 0.000000
vt 1.000000 0.000000
vt 0.972222 0.000000
vt 0.666667 0.000000
vt 0.555556 0.000000
vt 0.583333 0.000000
vt 0.611111 0.000000
vt 0.638889 0.000000
vt 0.694444 0.000000
vt 0.777778 0.000000
vt 0.722222 0.000000
vt 0.750000 0.000000
vt 0.805556 0.000000
vt 0.444444 0.000000
vt 0.416667 0.000000
vt 0.388889 0.000000
vt 0.833333 0.000000
vt 0.472222 0.000000
vt 0.361111 0.000000
vt 0.500000 0.000000
vt 0.527778 0.000000
vt 0.333333 0.000000
vt 0.861111 0.000000
vt 0.305556 0.000000
vt 0.888889 0.000000
vt 0.277778 0.000000
vt 0.111111 0.000000
vt 0.055556 0.000000
vt 0.083333 0.000000
vt 0.027778 0.000000
vt 0.250000 0.000000
vt 0.916667 0.000000
vt 0.138889 0.000000
vt 0.222222 0.000000
vt 0.000000 0.000000
vt 0.166667 0.000000
vt 0.944444 0.000000
vt 0.194444 0.000000
vt 1.000000 0.000000
vt 0.972222 0.000000
vt 0.000000 1.000000
vt 0.027027 1.000000
vt 0.027027 0.000000
vt 0.000000 0.000000
vt 0.054054 1.000000
vt 0.054054 0.000000
vt 0.081081 1.000000
vt 0.081081 0.000000
vt 0.108108 1.000000
vt 0.108108 0.000000
vt 0.135135 1.000000
vt 0.135135 0.000000
vt 0.162162 1.000000
vt 0.162162 0.000000
vt 0.189189 1.000000
vt 0.189189 0.000000
vt 0.216216 1.000000
vt 0.216216 0.000000
vt 0.243243 1.000000
vt 0.243243 0.000000
vt 0.270270 1.000000
vt 0.270270 0.000000
vt 0.297297 1.000000
vt 0.297297 0.000000
vt 0.324324 1.000000
vt 0.324324 0.000000
vt 0.351351 1.000000
vt 0.351351 0.000000
vt 0.378378 1.000000
vt 0.378378 0.000000
vt 0.405405 1.000000
vt 0.405405 0.000000
vt 0.432432 1.000000
vt 0.432432 0.000000
vt 0.459459 1.000000
vt 0.459459 0.000000
vt 0.486486 1.000000
vt 0.486486 0.000000
vt 0.513514 1.000000
vt 0.513514 0.000000
vt 0.540541 1.000000
vt 0.540541 0.000000
vt 0.567568 1.000000
vt 0.567568 0.000000
vt 0.594595 1.000000
vt 0.594595 0.000000
vt 0.621622 1.000000
vt 0.621622 0.000000
vt 0.648649 1.000000
vt 0.648649 0.000000
vt 0.675676 1.000000
vt 0.675676 0.000000
vt 0.702703 1.000000
vt 0.702703 0.000000
vt 0.729730 1.000000
vt 0.729730 0.000000
vt 0.756757 1.000000
vt 0.756757 0.000000
vt 0.783784 1.000000
vt 0.783784 0.000000
vt 0.810811 1.000000
vt 0.810811 0.000000
vt 0.837838 1.000000
vt 0.837838 0.000000
vt 0.864865 1.000000
vt 0.864865 0.000000
vt 0.891892 1.000000
vt 0.891892 0.000000
vt 0.918919 1.000000
vt 0.918919 0.000000
vt 0.945946 1.000000
vt 0.945946 0.000000
vt 0.972973 1.000000
vt 0.972973 0.000000
vt 1.000000 1.000000
vt 1.000000 0.000000
vn 0.0000 1.0000 -0.0000
vn 0.0000 -1.0000 -0.0000
vn -0.6611 0.0000 0.7503
vn -0.8969 0.0000 0.4422
vn -0.8191 0.0000 -0.5737
vn 0.5669 0.0000 -0.8238
vn 0.8989 0.0000 -0.4380
vn 0.6810 0.0000 -0.7323
vn 0.3547 0.0000 -0.9350
vn -0.0148 0.0000 -0.9999
vn -0.4056 0.0000 -0.9140
vn -0.7413 0.0000 -0.6712
vn -0.9415 0.0000 -0.3370
vn -1.0000 0.0000 0.0014
vn -0.9380 0.0000 0.3467
vn -0.7200 0.0000 0.6940
vn -0.3724 0.0000 0.9281
vn -0.0276 0.0000 0.9996
vn 0.2466 0.0000 0.9691
vn 0.4827 0.0000 0.8757
vn 0.6835 0.0000 0.7299
vn 0.3652 0.0000 0.9309
vn -0.8095 0.0000 0.5871
vn -0.6382 0.0000 -0.7698
vn 0.7071 0.0000 -0.7071
vn 0.7071 0.0000 0.7071
vn 0.6338 0.0000 0.7735
vn 0.6040 0.0000 -0.7970
vn -0.3110 0.0000 -0.9504
vn 0.0124 0.0000 -0.9999
vn 0.3811 0.0000 -0.9245
vn 0.7137 0.0000 -0.7004
vn 0.9306 0.0000 -0.3659
vn 0.9999 0.0000 -0.0084
vn 0.9465 0.0000 0.3226
vn 0.7656 0.0000 0.6433
vn 0.4242 0.0000 0.9055
vn 0.0241 0.0000 0.9997
vn -0.3327 0.0000 0.9430
usemtl None
s off
f 21/1/1 25/2/1 22/3/1
f 25/2/1 23/4/1 22/3/1
f 25/2/1 24/5/1 23/4/1
f 21/1/1 26/6/1 25/2/1
f 27/7/1 29/8/1 28/9/1
f 26/6/1 29/8/1 27/7/1
f 26/6/1 30/10/1 29/8/1
f 21/1/1 17/11/1 26/6/1
f 17/11/1 16/12/1 26/6/1
f 16/12/1 30/10/1 26/6/1
f 16/12/1 15/13/1 30/10/1
f 15/13/1 31/14/1 30/10/1
f 21/1/1 18/15/1 17/11/1
f 14/16/1 31/14/1 15/13/1
f 21/1/1 19/17/1 18/15/1
f 21/1/1 20/18/1 19/17/1
f 13/19/1 31/14/1 14/16/1
f 13/19/1 32/20/1 31/14/1
f 12/21/1 32/20/1 13/19/1
f 12/21/1 33/22/1 32/20/1
f 11/23/1 33/22/1 12/21/1
f 3/24/1 5/25/1 4/26/1
f 2/27/1 5/25/1 3/24/1
f 10/28/1 33/22/1 11/23/1
f 10/28/1 34/29/1 33/22/1
f 2/27/1 6/30/1 5/25/1
f 9/31/1 34/29/1 10/28/1
f 1/32/1 6/30/1 2/27/1
f 1/32/1 7/33/1 6/30/1
f 9/31/1 35/34/1 34/29/1
f 8/35/1 35/34/1 9/31/1
f 1/32/1 8/35/1 7/33/1
f 1/32/1 35/34/1 8/35/1
f 37/36/1 35/34/1 1/32/1
f 37/36/1 36/37/1 35/34/1
f 62/38/2 58/39/2 59/40/2
f 60/41/2 62/38/2 59/40/2
f 61/42/2 62/38/2 60/41/2
f 63/43/2 58/39/2 62/38/2
f 66/44/2 64/45/2 65/46/2
f 66/44/2 63/43/2 64/45/2
f 67/47/2 63/43/2 66/44/2
f 54/48/2 58/39/2 63/43/2
f 53/49/2 54/48/2 63/43/2
f 67/47/2 53/49/2 63/43/2
f 52/50/2 53/49/2 67/47/2
f 68/51/2 52/50/2 67/47/2
f 55/52/2 58/39/2 54/48/2
f 68/51/2 51/53/2 52/50/2
f 56/54/2 58/39/2 55/52/2
f 57/55/2 58/39/2 56/54/2
f 68/51/2 50/56/2 51/53/2
f 69/57/2 50/56/2 68/51/2
f 69/57/2 49/58/2 50/56/2
f 70/59/2 49/58/2 69/57/2
f 70/59/2 48/60/2 49/58/2
f 42/61/2 40/62/2 41/63/2
f 42/61/2 39/64/2 40/62/2
f 70/59/2 47/65/2 48/60/2
f 71/66/2 47/65/2 70/59/2
f 43/67/2 39/64/2 42/61/2
f 71/66/2 46/68/2 47/65/2
f 43/67/2 38/69/2 39/64/2
f 44/70/2 38/69/2 43/67/2
f 72/71/2 46/68/2 71/66/2
f 72/71/2 45/72/2 46/68/2
f 45/72/2 38/69/2 44/70/2
f 72/71/2 38/69/2 45/72/2
f 72/71/2 74/73/2 38/69/2
f 73/74/2 74/73/2 72/71/2
s 71
f 76/75/3 78/76/4 77/77/4 75/78/3
f 78/76/4 80/79/5 79/80/5 77/77/4
f 80/79/5 82/81/6 81/82/6 79/80/5
f 82/81/6 84/83/7 83/84/7 81/82/6
f 84/83/7 86/85/8 85/86/8 83/84/7
f 86/85/8 88/87/9 87/88/9 85/86/8
f 88/87/9 90/89/10 89/90/10 87/88/9
f 90/89/10 92/91/11 91/92/11 89/90/10
f 92/91/11 94/93/12 93/94/12 91/92/11
f 94/93/12 96/95/13 95/96/13 93/94/12
f 96/95/13 98/97/14 97/98/14 95/96/13
f 98/97/14 100/99/15 99/100/15 97/98/14
f 100/99/15 102/101/16 101/102/16 99/100/15
f 102/101/16 104/103/17 103/104/17 101/102/16
f 104/103/17 106/105/18 105/106/18 103/104/17
f 106/105/18 108/107/19 107/108/19 105/106/18
f 108/107/19 110/109/20 109/110/20 107/108/19
f 110/109/20 112/111/21 111/112/21 109/110/20
f 112/111/21 114/113/22 113/114/22 111/112/21
f 114/113/22 116/115/23 115/116/23 113/114/22
f 116/115/23 118/117/24 117/118/24 115/116/23
f 118/117/24 120/119/25 119/120/25 117/118/24
f 120/119/25 122/121/26 121/122/26 119/120/25
f 122/121/26 124/123/27 123/124/27 121/122/26
f 124/123/27 126/125/28 125/126/28 123/124/27
f 126/125/28 128/127/29 127/128/29 125/126/28
f 128/127/29 130/129/30 129/130/30 127/128/29
f 130/129/30 132/131/31 131/132/31 129/130/30
f 132/131/31 134/133/32 133/134/32 131/132/31
f 134/133/32 136/135/33 135/136/33 133/134/32
f 136/135/33 138/137/34 137/138/34 135/136/33
f 138/137/34 140/139/35 139/140/35 137/138/34
f 140/139/35 142/141/36 141/142/36 139/140/35
f 142/141/36 144/143/37 143/144/37 141/142/36
f 144/143/37 146/145/38 145/146/38 143/144/37
f 146/145/38 148/147/39 147/148/39 145/146/38
f 148/147/39 76/149/3 75/150/3 147/148/39
