# Blender v2.90.0 OBJ File: '7.blend'
# www.blender.org
mtllib 7.mtl
o Text
v 0.219297 0.159137 -0.481933
v -0.364915 0.159137 -0.481933
v -0.364915 0.159137 -0.622697
v 0.407253 0.159137 -0.622697
v 0.407253 0.159137 -0.508784
v 0.293848 0.159137 -0.367613
v 0.181461 0.159137 -0.186573
v 0.082296 0.159137 0.017250
v 0.008557 0.159137 0.226769
v -0.027447 0.159137 0.383603
v -0.047585 0.159137 0.554676
v -0.198113 0.159137 0.554676
v -0.183061 0.159137 0.399266
v -0.142784 0.159137 0.214564
v -0.078403 0.159137 0.018776
v 0.008964 0.159137 -0.169892
v 0.110977 0.159137 -0.340457
v 0.219297 -0.159137 -0.481933
v -0.364915 -0.159137 -0.481933
v -0.364915 -0.159137 -0.622697
v 0.407253 -0.159137 -0.622697
v 0.407253 -0.159137 -0.508784
v 0.293848 -0.159137 -0.367613
v 0.181461 -0.159137 -0.186573
v 0.082296 -0.159137 0.017250
v 0.008557 -0.159137 0.226769
v -0.027447 -0.159137 0.383603
v -0.047585 -0.159137 0.554676
v -0.198113 -0.159137 0.554676
v -0.183061 -0.159137 0.399266
v -0.142784 -0.159137 0.214564
v -0.078403 -0.159137 0.018776
v 0.008964 -0.159137 -0.169892
v 0.110977 -0.159137 -0.340457
v 0.219297 -0.159137 -0.481933
v 0.219297 0.159137 -0.481933
v -0.364915 -0.159137 -0.481933
v -0.364915 0.159137 -0.481933
v -0.364915 -0.159137 -0.622697
v -0.364915 0.159137 -0.622697
v 0.407253 -0.159137 -0.622697
v 0.407253 0.159137 -0.622697
v 0.407253 -0.159137 -0.508784
v 0.407253 0.159137 -0.508784
v 0.293848 -0.159137 -0.367613
v 0.293848 0.159137 -0.367613
v 0.181461 -0.159137 -0.186573
v 0.181461 0.159137 -0.186573
v 0.082296 -0.159137 0.017250
v 0.082296 0.159137 0.017250
v 0.008557 -0.159137 0.226769
v 0.008557 0.159137 0.226769
v -0.027447 -0.159137 0.383603
v -0.027447 0.159137 0.383603
v -0.047585 -0.159137 0.554676
v -0.047585 0.159137 0.554676
v -0.198113 -0.159137 0.554676
v -0.198113 0.159137 0.554676
v -0.183061 -0.159137 0.399266
v -0.183061 0.159137 0.399266
v -0.142784 -0.159137 0.214564
v -0.142784 0.159137 0.214564
v -0.078403 -0.159137 0.018776
v -0.078403 0.159137 0.018776
v 0.008964 -0.159137 -0.169892
v 0.008964 0.159137 -0.169892
v 0.110977 -0.159137 -0.340457
v 0.110977 0.159137 -0.340457
vt 0.062500 0.000000
vt 0.187500 0.000000
vt 0.125000 0.000000
vt 0.250000 0.000000
vt 0.000000 0.000000
vt 0.312500 0.000000
vt 1.000000 0.000000
vt 0.375000 0.000000
vt 0.937500 0.000000
vt 0.437500 0.000000
vt 0.875000 0.000000
vt 0.500000 0.000000
vt 0.812500 0.000000
vt 0.750000 0.000000
vt 0.562500 0.000000
vt 0.625000 0.000000
vt 0.687500 0.000000
vt 0.187500 0.000000
vt 0.062500 0.000000
vt 0.125000 0.000000
vt 0.250000 0.000000
vt 0.000000 0.000000
vt 0.312500 0.000000
vt 1.000000 0.000000
vt 0.375000 0.000000
vt 0.937500 0.000000
vt 0.437500 0.000000
vt 0.875000 0.000000
vt 0.500000 0.000000
vt 0.812500 0.000000
vt 0.750000 0.000000
vt 0.562500 0.000000
vt 0.625000 0.000000
vt 0.687500 0.000000
vt 0.000000 1.000000
vt 0.058824 1.000000
vt 0.058824 0.000000
vt 0.000000 0.000000
vt 0.117647 1.000000
vt 0.117647 0.000000
vt 0.176471 1.000000
vt 0.176471 0.000000
vt 0.235294 1.000000
vt 0.235294 0.000000
vt 0.294118 1.000000
vt 0.294118 0.000000
vt 0.352941 1.000000
vt 0.352941 0.000000
vt 0.411765 1.000000
vt 0.411765 0.000000
vt 0.470588 1.000000
vt 0.470588 0.000000
vt 0.529412 1.000000
vt 0.529412 0.000000
vt 0.588235 1.000000
vt 0.588235 0.000000
vt 0.647059 1.000000
vt 0.647059 0.000000
vt 0.705882 1.000000
vt 0.705882 0.000000
vt 0.764706 1.000000
vt 0.764706 0.000000
vt 0.823529 1.000000
vt 0.823529 0.000000
vt 0.882353 1.000000
vt 0.882353 0.000000
vt 0.941176 1.000000
vt 0.941176 0.000000
vt 1.000000 1.000000
vt 1.000000 0.000000
vn 0.0000 1.0000 0.0000
vn 0.0000 -1.0000 0.0000
vn -0.8966 0.0000 0.4428
vn -0.7071 0.0000 0.7071
vn -0.7071 0.0000 -0.7071
vn 0.7071 0.0000 -0.7071
vn 0.9433 0.0000 0.3319
vn 0.8161 0.0000 0.5779
vn 0.8755 0.0000 0.4831
vn 0.9228 0.0000 0.3854
vn 0.9605 0.0000 0.2783
vn 0.9853 0.0000 0.1706
vn 0.6645 0.0000 0.7473
vn -0.7404 0.0000 0.6721
vn -0.9879 0.0000 -0.1550
vn -0.9648 0.0000 -0.2630
vn -0.9302 0.0000 -0.3669
vn -0.8840 0.0000 -0.4674
vn -0.8274 0.0000 -0.5615
usemtl None
s off
f 2/1/1 4/2/1 3/3/1
f 2/1/1 5/4/1 4/2/1
f 2/1/1 1/5/1 5/4/1
f 1/5/1 6/6/1 5/4/1
f 17/7/1 6/6/1 1/5/1
f 17/7/1 7/8/1 6/6/1
f 16/9/1 7/8/1 17/7/1
f 16/9/1 8/10/1 7/8/1
f 15/11/1 8/10/1 16/9/1
f 15/11/1 9/12/1 8/10/1
f 14/13/1 9/12/1 15/11/1
f 13/14/1 9/12/1 14/13/1
f 13/14/1 10/15/1 9/12/1
f 13/14/1 11/16/1 10/15/1
f 12/17/1 11/16/1 13/14/1
f 21/18/2 19/19/2 20/20/2
f 22/21/2 19/19/2 21/18/2
f 18/22/2 19/19/2 22/21/2
f 23/23/2 18/22/2 22/21/2
f 23/23/2 34/24/2 18/22/2
f 24/25/2 34/24/2 23/23/2
f 24/25/2 33/26/2 34/24/2
f 25/27/2 33/26/2 24/25/2
f 25/27/2 32/28/2 33/26/2
f 26/29/2 32/28/2 25/27/2
f 26/29/2 31/30/2 32/28/2
f 26/29/2 30/31/2 31/30/2
f 27/32/2 30/31/2 26/29/2
f 28/33/2 30/31/2 27/32/2
f 28/33/2 29/34/2 30/31/2
s 31
f 36/35/3 38/36/4 37/37/4 35/38/3
f 38/36/4 40/39/5 39/40/5 37/37/4
f 40/39/5 42/41/6 41/42/6 39/40/5
f 42/41/6 44/43/7 43/44/7 41/42/6
f 44/43/7 46/45/8 45/46/8 43/44/7
f 46/45/8 48/47/9 47/48/9 45/46/8
f 48/47/9 50/49/10 49/50/10 47/48/9
f 50/49/10 52/51/11 51/52/11 49/50/10
f 52/51/11 54/53/12 53/54/12 51/52/11
f 54/53/12 56/55/13 55/56/13 53/54/12
f 56/55/13 58/57/14 57/58/14 55/56/13
f 58/57/14 60/59/15 59/60/15 57/58/14
f 60/59/15 62/61/16 61/62/16 59/60/15
f 62/61/16 64/63/17 63/64/17 61/62/16
f 64/63/17 66/65/18 65/66/18 63/64/17
f 66/65/18 68/67/19 67/68/19 65/66/18
f 68/67/19 36/69/3 35/70/3 67/68/19
