# Blender v2.90.0 OBJ File: '8.blend'
# www.blender.org
mtllib 8.mtl
o Text
v -0.317315 0.159137 0.014809
v -0.245814 0.159137 -0.051199
v -0.149294 0.159137 -0.092188
v -0.228626 0.159137 -0.132667
v -0.284362 0.159137 -0.187386
v -0.317315 0.159137 -0.255327
v -0.328300 0.159137 -0.335473
v -0.304907 0.159137 -0.455285
v -0.234728 0.159137 -0.554349
v -0.125697 0.159137 -0.620866
v 0.014253 0.159137 -0.643038
v 0.155220 0.159137 -0.620358
v 0.265675 0.159137 -0.552315
v 0.337074 0.159137 -0.451726
v 0.360874 0.159137 -0.331405
v 0.349991 0.159137 -0.253802
v 0.317343 0.159137 -0.186979
v 0.262522 0.159137 -0.132566
v 0.185123 0.159137 -0.092188
v 0.281847 0.159137 -0.045402
v 0.352331 0.159137 0.023353
v 0.395353 0.159137 0.110822
v 0.409694 0.159137 0.213750
v 0.382640 0.159137 0.354514
v 0.301477 0.159137 0.470868
v 0.176172 0.159137 0.548980
v 0.016694 0.159137 0.575017
v -0.142784 0.159137 0.548878
v -0.268089 0.159137 0.470461
v -0.349252 0.159137 0.352989
v -0.376306 0.159137 0.209682
v -0.361558 0.159137 0.102787
v -0.123256 0.159137 -0.468914
v -0.164753 0.159137 -0.409924
v -0.178585 0.159137 -0.340355
v -0.164957 0.159137 -0.263464
v -0.124070 0.159137 -0.202032
v -0.061418 0.159137 -0.161756
v 0.017508 0.159137 -0.148330
v 0.094501 0.159137 -0.161654
v 0.156238 0.159137 -0.201625
v 0.196819 0.159137 -0.260921
v 0.210346 0.159137 -0.332219
v 0.196412 0.159137 -0.406364
v 0.154610 0.159137 -0.467694
v 0.092060 0.159137 -0.508885
v 0.015880 0.159137 -0.522616
v -0.060807 0.159137 -0.509191
v -0.157837 0.159137 0.039626
v -0.208793 0.159137 0.116517
v -0.225778 0.159137 0.210496
v -0.218353 0.159137 0.272131
v -0.196079 0.159137 0.331732
v -0.159159 0.159137 0.383705
v -0.107797 0.159137 0.422455
v -0.046975 0.159137 0.446560
v 0.018321 0.159137 0.454595
v 0.114130 0.159137 0.437711
v 0.191632 0.159137 0.387061
v 0.242893 0.159137 0.310373
v 0.259980 0.159137 0.215378
v 0.242384 0.159137 0.118755
v 0.189598 0.159137 0.040440
v 0.110367 0.159137 -0.011431
v 0.013439 0.159137 -0.028722
v -0.081047 0.159137 -0.011635
v -0.317315 -0.159137 0.014809
v -0.245814 -0.159137 -0.051199
v -0.149294 -0.159137 -0.092188
v -0.228626 -0.159137 -0.132667
v -0.284362 -0.159137 -0.187386
v -0.317315 -0.159137 -0.255327
v -0.328300 -0.159137 -0.335473
v -0.304907 -0.159137 -0.455285
v -0.234728 -0.159137 -0.554349
v -0.125697 -0.159137 -0.620866
v 0.014253 -0.159137 -0.643038
v 0.155220 -0.159137 -0.620358
v 0.265675 -0.159137 -0.552315
v 0.337074 -0.159137 -0.451726
v 0.360874 -0.159137 -0.331405
v 0.349991 -0.159137 -0.253802
v 0.317343 -0.159137 -0.186979
v 0.262522 -0.159137 -0.132566
v 0.185123 -0.159137 -0.092188
v 0.281847 -0.159137 -0.045402
v 0.352331 -0.159137 0.023353
v 0.395353 -0.159137 0.110822
v 0.409694 -0.159137 0.213750
v 0.382640 -0.159137 0.354514
v 0.301477 -0.159137 0.470868
v 0.176172 -0.159137 0.548980
v 0.016694 -0.159137 0.575017
v -0.142784 -0.159137 0.548878
v -0.268089 -0.159137 0.470461
v -0.349252 -0.159137 0.352989
v -0.376306 -0.159137 0.209682
v -0.361558 -0.159137 0.102787
v -0.123256 -0.159137 -0.468914
v -0.164753 -0.159137 -0.409924
v -0.178585 -0.159137 -0.340355
v -0.164957 -0.159137 -0.263464
v -0.124070 -0.159137 -0.202032
v -0.061418 -0.159137 -0.161756
v 0.017508 -0.159137 -0.148330
v 0.094501 -0.159137 -0.161654
v 0.156238 -0.159137 -0.201625
v 0.196819 -0.159137 -0.260921
v 0.210346 -0.159137 -0.332219
v 0.196412 -0.159137 -0.406364
v 0.154610 -0.159137 -0.467694
v 0.092060 -0.159137 -0.508885
v 0.015880 -0.159137 -0.522616
v -0.060807 -0.159137 -0.509191
v -0.157837 -0.159137 0.039626
v -0.208793 -0.159137 0.116517
v -0.225778 -0.159137 0.210496
v -0.218353 -0.159137 0.272131
v -0.196079 -0.159137 0.331732
v -0.159159 -0.159137 0.383705
v -0.107797 -0.159137 0.422455
v -0.046975 -0.159137 0.446560
v 0.018321 -0.159137 0.454595
v 0.114130 -0.159137 0.437711
v 0.191632 -0.159137 0.387061
v 0.242893 -0.159137 0.310373
v 0.259980 -0.159137 0.215378
v 0.242384 -0.159137 0.118755
v 0.189598 -0.159137 0.040440
v 0.110367 -0.159137 -0.011431
v 0.013439 -0.159137 -0.028722
v -0.081047 -0.159137 -0.011635
v -0.317315 -0.159137 0.014809
v -0.317315 0.159137 0.014809
v -0.245814 -0.159137 -0.051199
v -0.245814 0.159137 -0.051199
v -0.149294 -0.159137 -0.092188
v -0.149294 0.159137 -0.092188
v -0.228626 -0.159137 -0.132667
v -0.228626 0.159137 -0.132667
v -0.284362 -0.159137 -0.187386
v -0.284362 0.159137 -0.187386
v -0.317315 -0.159137 -0.255327
v -0.317315 0.159137 -0.255327
v -0.328300 -0.159137 -0.335473
v -0.328300 0.159137 -0.335473
v -0.304907 -0.159137 -0.455285
v -0.304907 0.159137 -0.455285
v -0.234728 -0.159137 -0.554349
v -0.234728 0.159137 -0.554349
v -0.125697 -0.159137 -0.620866
v -0.125697 0.159137 -0.620866
v 0.014253 -0.159137 -0.643038
v 0.014253 0.159137 -0.643038
v 0.155220 -0.159137 -0.620358
v 0.155220 0.159137 -0.620358
v 0.265675 -0.159137 -0.552315
v 0.265675 0.159137 -0.552315
v 0.337074 -0.159137 -0.451726
v 0.337074 0.159137 -0.451726
v 0.360874 -0.159137 -0.331405
v 0.360874 0.159137 -0.331405
v 0.349991 -0.159137 -0.253802
v 0.349991 0.159137 -0.253802
v 0.317343 -0.159137 -0.186979
v 0.317343 0.159137 -0.186979
v 0.262522 -0.159137 -0.132566
v 0.262522 0.159137 -0.132566
v 0.185123 -0.159137 -0.092188
v 0.185123 0.159137 -0.092188
v 0.281847 -0.159137 -0.045402
v 0.281847 0.159137 -0.045402
v 0.352331 -0.159137 0.023353
v 0.352331 0.159137 0.023353
v 0.395353 -0.159137 0.110822
v 0.395353 0.159137 0.110822
v 0.409694 -0.159137 0.213750
v 0.409694 0.159137 0.213750
v 0.382640 -0.159137 0.354514
v 0.382640 0.159137 0.354514
v 0.301477 -0.159137 0.470868
v 0.301477 0.159137 0.470868
v 0.176172 -0.159137 0.548980
v 0.176172 0.159137 0.548980
v 0.016694 -0.159137 0.575017
v 0.016694 0.159137 0.575017
v -0.142784 -0.159137 0.548878
v -0.142784 0.159137 0.548878
v -0.268089 -0.159137 0.470461
v -0.268089 0.159137 0.470461
v -0.349252 -0.159137 0.352989
v -0.349252 0.159137 0.352989
v -0.376306 -0.159137 0.209682
v -0.376306 0.159137 0.209682
v -0.361558 -0.159137 0.102787
v -0.361558 0.159137 0.102787
v -0.123256 -0.159137 -0.468914
v -0.123256 0.159137 -0.468914
v -0.164753 -0.159137 -0.409924
v -0.164753 0.159137 -0.409924
v -0.178585 -0.159137 -0.340355
v -0.178585 0.159137 -0.340355
v -0.164957 -0.159137 -0.263464
v -0.164957 0.159137 -0.263464
v -0.124070 -0.159137 -0.202032
v -0.124070 0.159137 -0.202032
v -0.061418 -0.159137 -0.161756
v -0.061418 0.159137 -0.161756
v 0.017508 -0.159137 -0.148330
v 0.017508 0.159137 -0.148330
v 0.094501 -0.159137 -0.161654
v 0.094501 0.159137 -0.161654
v 0.156238 -0.159137 -0.201625
v 0.156238 0.159137 -0.201625
v 0.196819 -0.159137 -0.260921
v 0.196819 0.159137 -0.260921
v 0.210346 -0.159137 -0.332219
v 0.210346 0.159137 -0.332219
v 0.196412 -0.159137 -0.406364
v 0.196412 0.159137 -0.406364
v 0.154610 -0.159137 -0.467694
v 0.154610 0.159137 -0.467694
v 0.092060 -0.159137 -0.508885
v 0.092060 0.159137 -0.508885
v 0.015880 -0.159137 -0.522616
v 0.015880 0.159137 -0.522616
v -0.060807 -0.159137 -0.509191
v -0.060807 0.159137 -0.509191
v -0.157837 -0.159137 0.039626
v -0.157837 0.159137 0.039626
v -0.208793 -0.159137 0.116517
v -0.208793 0.159137 0.116517
v -0.225778 -0.159137 0.210496
v -0.225778 0.159137 0.210496
v -0.218353 -0.159137 0.272131
v -0.218353 0.159137 0.272131
v -0.196079 -0.159137 0.331732
v -0.196079 0.159137 0.331732
v -0.159159 -0.159137 0.383705
v -0.159159 0.159137 0.383705
v -0.107797 -0.159137 0.422455
v -0.107797 0.159137 0.422455
v -0.046975 -0.159137 0.446560
v -0.046975 0.159137 0.446560
v 0.018321 -0.159137 0.454595
v 0.018321 0.159137 0.454595
v 0.114130 -0.159137 0.437711
v 0.114130 0.159137 0.437711
v 0.191632 -0.159137 0.387061
v 0.191632 0.159137 0.387061
v 0.242893 -0.159137 0.310373
v 0.242893 0.159137 0.310373
v 0.259980 -0.159137 0.215378
v 0.259980 0.159137 0.215378
v 0.242384 -0.159137 0.118755
v 0.242384 0.159137 0.118755
v 0.189598 -0.159137 0.040440
v 0.189598 0.159137 0.040440
v 0.110367 -0.159137 -0.011431
v 0.110367 0.159137 -0.011431
v 0.013439 -0.159137 -0.028722
v 0.013439 0.159137 -0.028722
v -0.081047 -0.159137 -0.011635
v -0.081047 0.159137 -0.011635
vt 0.138462 0.000000
vt 0.169231 0.000000
vt 0.153846 0.000000
vt 0.123077 0.000000
vt 0.184615 0.000000
vt 0.107692 0.000000
vt 0.723077 0.000000
vt 0.707692 0.000000
vt 0.692308 0.000000
vt 0.200000 0.000000
vt 0.492308 0.000000
vt 0.676923 0.000000
vt 0.507692 0.000000
vt 0.661538 0.000000
vt 0.092308 0.000000
vt 0.215385 0.000000
vt 0.523077 0.000000
vt 0.646154 0.000000
vt 0.538462 0.000000
vt 0.076923 0.000000
vt 0.630769 0.000000
vt 0.230769 0.000000
vt 0.553846 0.000000
vt 0.615385 0.000000
vt 0.061538 0.000000
vt 0.246154 0.000000
vt 0.569231 0.000000
vt 0.600000 0.000000
vt 0.046154 0.000000
vt 0.261538 0.000000
vt 0.584615 0.000000
vt 0.030769 0.000000
vt 0.276923 0.000000
vt 0.015385 0.000000
vt 0.292308 0.000000
vt 0.000000 0.000000
vt 0.984615 0.000000
vt 0.307692 0.000000
vt 1.000000 0.000000
vt 0.969231 0.000000
vt 0.738462 0.000000
vt 0.953846 0.000000
vt 0.476923 0.000000
vt 0.323077 0.000000
vt 0.753846 0.000000
vt 0.938462 0.000000
vt 0.461538 0.000000
vt 0.338462 0.000000
vt 0.769231 0.000000
vt 0.923077 0.000000
vt 0.446154 0.000000
vt 0.784615 0.000000
vt 0.353846 0.000000
vt 0.907692 0.000000
vt 0.800000 0.000000
vt 0.892308 0.000000
vt 0.815385 0.000000
vt 0.430769 0.000000
vt 0.369231 0.000000
vt 0.830769 0.000000
vt 0.876923 0.000000
vt 0.846154 0.000000
vt 0.861538 0.000000
vt 0.415385 0.000000
vt 0.384615 0.000000
vt 0.400000 0.000000
vt 0.169231 0.000000
vt 0.138462 0.000000
vt 0.153846 0.000000
vt 0.123077 0.000000
vt 0.184615 0.000000
vt 0.723077 0.000000
vt 0.107692 0.000000
vt 0.707692 0.000000
vt 0.692308 0.000000
vt 0.200000 0.000000
vt 0.492308 0.000000
vt 0.676923 0.000000
vt 0.507692 0.000000
vt 0.661538 0.000000
vt 0.092308 0.000000
vt 0.215385 0.000000
vt 0.523077 0.000000
vt 0.646154 0.000000
vt 0.538462 0.000000
vt 0.076923 0.000000
vt 0.630769 0.000000
vt 0.230769 0.000000
vt 0.553846 0.000000
vt 0.615385 0.000000
vt 0.061538 0.000000
vt 0.246154 0.000000
vt 0.569231 0.000000
vt 0.600000 0.000000
vt 0.046154 0.000000
vt 0.261538 0.000000
vt 0.584615 0.000000
vt 0.030769 0.000000
vt 0.276923 0.000000
vt 0.015385 0.000000
vt 0.292308 0.000000
vt 0.984615 0.000000
vt 0.000000 0.000000
vt 0.307692 0.000000
vt 1.000000 0.000000
vt 0.969231 0.000000
vt 0.738462 0.000000
vt 0.953846 0.000000
vt 0.476923 0.000000
vt 0.323077 0.000000
vt 0.753846 0.000000
vt 0.938462 0.000000
vt 0.461538 0.000000
vt 0.338462 0.000000
vt 0.769231 0.000000
vt 0.923077 0.000000
vt 0.446154 0.000000
vt 0.784615 0.000000
vt 0.353846 0.000000
vt 0.907692 0.000000
vt 0.800000 0.000000
vt 0.892308 0.000000
vt 0.815385 0.000000
vt 0.430769 0.000000
vt 0.369231 0.000000
vt 0.830769 0.000000
vt 0.876923 0.000000
vt 0.846154 0.000000
vt 0.861538 0.000000
vt 0.415385 0.000000
vt 0.384615 0.000000
vt 0.400000 0.000000
vt 0.000000 1.000000
vt 0.031250 1.000000
vt 0.031250 0.000000
vt 0.000000 0.000000
vt 0.062500 1.000000
vt 0.062500 0.000000
vt 0.093750 1.000000
vt 0.093750 0.000000
vt 0.125000 1.000000
vt 0.125000 0.000000
vt 0.156250 1.000000
vt 0.156250 0.000000
vt 0.187500 1.000000
vt 0.187500 0.000000
vt 0.218750 1.000000
vt 0.218750 0.000000
vt 0.250000 1.000000
vt 0.250000 0.000000
vt 0.281250 1.000000
vt 0.281250 0.000000
vt 0.312500 1.000000
vt 0.312500 0.000000
vt 0.343750 1.000000
vt 0.343750 0.000000
vt 0.375000 1.000000
vt 0.375000 0.000000
vt 0.406250 1.000000
vt 0.406250 0.000000
vt 0.437500 1.000000
vt 0.437500 0.000000
vt 0.468750 1.000000
vt 0.468750 0.000000
vt 0.500000 1.000000
vt 0.500000 0.000000
vt 0.531250 1.000000
vt 0.531250 0.000000
vt 0.562500 1.000000
vt 0.562500 0.000000
vt 0.593750 1.000000
vt 0.593750 0.000000
vt 0.625000 1.000000
vt 0.625000 0.000000
vt 0.656250 1.000000
vt 0.656250 0.000000
vt 0.687500 1.000000
vt 0.687500 0.000000
vt 0.718750 1.000000
vt 0.718750 0.000000
vt 0.750000 1.000000
vt 0.750000 0.000000
vt 0.781250 1.000000
vt 0.781250 0.000000
vt 0.812500 1.000000
vt 0.812500 0.000000
vt 0.843750 1.000000
vt 0.843750 0.000000
vt 0.875000 1.000000
vt 0.875000 0.000000
vt 0.906250 1.000000
vt 0.906250 0.000000
vt 0.937500 1.000000
vt 0.937500 0.000000
vt 0.968750 1.000000
vt 0.968750 0.000000
vt 1.000000 1.000000
vt 1.000000 0.000000
vt 0.000000 1.000000
vt 0.062500 1.000000
vt 0.062500 0.000000
vt 0.000000 0.000000
vt 0.125000 1.000000
vt 0.125000 0.000000
vt 0.187500 1.000000
vt 0.187500 0.000000
vt 0.250000 1.000000
vt 0.250000 0.000000
vt 0.312500 1.000000
vt 0.312500 0.000000
vt 0.375000 1.000000
vt 0.375000 0.000000
vt 0.437500 1.000000
vt 0.437500 0.000000
vt 0.500000 1.000000
vt 0.500000 0.000000
vt 0.562500 1.000000
vt 0.562500 0.000000
vt 0.625000 1.000000
vt 0.625000 0.000000
vt 0.687500 1.000000
vt 0.687500 0.000000
vt 0.750000 1.000000
vt 0.750000 0.000000
vt 0.812500 1.000000
vt 0.812500 0.000000
vt 0.875000 1.000000
vt 0.875000 0.000000
vt 0.937500 1.000000
vt 0.937500 0.000000
vt 1.000000 1.000000
vt 1.000000 0.000000
vt 0.000000 1.000000
vt 0.055556 1.000000
vt 0.055556 0.000000
vt 0.000000 0.000000
vt 0.111111 1.000000
vt 0.111111 0.000000
vt 0.166667 1.000000
vt 0.166667 0.000000
vt 0.222222 1.000000
vt 0.222222 0.000000
vt 0.277778 1.000000
vt 0.277778 0.000000
vt 0.333333 1.000000
vt 0.333333 0.000000
vt 0.388889 1.000000
vt 0.388889 0.000000
vt 0.444444 1.000000
vt 0.444444 0.000000
vt 0.500000 1.000000
vt 0.500000 0.000000
vt 0.555556 1.000000
vt 0.555556 0.000000
vt 0.611111 1.000000
vt 0.611111 0.000000
vt 0.666667 1.000000
vt 0.666667 0.000000
vt 0.722222 1.000000
vt 0.722222 0.000000
vt 0.777778 1.000000
vt 0.777778 0.000000
vt 0.833333 1.000000
vt 0.833333 0.000000
vt 0.888889 1.000000
vt 0.888889 0.000000
vt 0.944444 1.000000
vt 0.944444 0.000000
vt 1.000000 1.000000
vt 1.000000 0.000000
vn 0.0000 1.0000 0.0000
vn 0.0000 -1.0000 0.0000
vn -0.7987 0.0000 -0.6017
vn -0.5426 0.0000 -0.8400
vn -0.9994 0.0000 -0.0351
vn -0.5843 0.0000 0.8115
vn -0.8121 0.0000 0.5835
vn -0.9571 0.0000 0.2897
vn -0.9996 0.0000 -0.0283
vn -0.9192 0.0000 -0.3936
vn -0.6825 0.0000 -0.7309
vn -0.3452 0.0000 -0.9385
vn 0.0012 0.0000 -1.0000
vn 0.3483 0.0000 -0.9373
vn 0.6837 0.0000 -0.7298
vn 0.9186 0.0000 -0.3952
vn 0.9996 0.0000 -0.0280
vn 0.9562 0.0000 0.2926
vn 0.8128 0.0000 0.5825
vn 0.5901 0.0000 0.8073
vn 0.9999 0.0000 -0.0151
vn 0.5743 0.0000 -0.8186
vn 0.8095 0.0000 -0.5871
vn 0.9560 0.0000 -0.2934
vn 0.9997 0.0000 0.0257
vn 0.9213 0.0000 0.3889
vn 0.6886 0.0000 0.7251
vn 0.3519 0.0000 0.9360
vn -0.0003 0.0000 1.0000
vn -0.3530 0.0000 0.9356
vn -0.6908 0.0000 0.7230
vn -0.9228 0.0000 0.3853
vn -0.9997 0.0000 0.0247
vn -0.9549 0.0000 -0.2970
vn 0.6927 0.0000 0.7212
vn 0.9192 0.0000 0.3937
vn 0.9999 0.0000 0.0104
vn 0.9282 0.0000 -0.3721
vn 0.7014 0.0000 -0.7127
vn 0.3615 0.0000 -0.9323
vn -0.0014 0.0000 -1.0000
vn -0.3644 0.0000 -0.9312
vn -0.6980 0.0000 -0.7161
vn -0.9234 0.0000 -0.3837
vn -1.0000 0.0000 -0.0009
vn -0.9241 0.0000 0.3820
vn -0.7014 0.0000 0.7127
vn -0.3712 0.0000 0.9285
vn -0.0025 0.0000 1.0000
vn 0.3645 0.0000 0.9312
vn 0.7083 0.0000 0.7059
vn 0.9279 0.0000 0.3728
vn 0.9995 0.0000 0.0295
vn 0.9716 0.0000 -0.2365
vn 0.8834 0.0000 -0.4686
vn 0.7172 0.0000 -0.6969
vn 0.4898 0.0000 -0.8718
vn 0.2473 0.0000 -0.9689
vn -0.0260 0.0000 -0.9996
vn -0.3678 0.0000 -0.9299
vn -0.7034 0.0000 -0.7107
vn -0.9273 0.0000 -0.3742
vn -1.0000 0.0000 0.0011
vn -0.9262 0.0000 0.3770
vn -0.7023 0.0000 0.7118
vn -0.3691 0.0000 0.9293
vn 0.0012 0.0000 1.0000
vn 0.3744 0.0000 0.9272
usemtl None
s off
f 10/1/1 12/2/1 11/3/1
f 9/4/1 12/2/1 10/1/1
f 9/4/1 13/5/1 12/2/1
f 8/6/1 48/7/1 9/4/1
f 48/7/1 47/8/1 9/4/1
f 47/8/1 13/5/1 9/4/1
f 47/8/1 46/9/1 13/5/1
f 46/9/1 14/10/1 13/5/1
f 8/6/1 33/11/1 48/7/1
f 45/12/1 14/10/1 46/9/1
f 8/6/1 34/13/1 33/11/1
f 44/14/1 14/10/1 45/12/1
f 7/15/1 34/13/1 8/6/1
f 44/14/1 15/16/1 14/10/1
f 7/15/1 35/17/1 34/13/1
f 43/18/1 15/16/1 44/14/1
f 7/15/1 36/19/1 35/17/1
f 6/20/1 36/19/1 7/15/1
f 42/21/1 15/16/1 43/18/1
f 42/21/1 16/22/1 15/16/1
f 6/20/1 37/23/1 36/19/1
f 41/24/1 16/22/1 42/21/1
f 5/25/1 37/23/1 6/20/1
f 41/24/1 17/26/1 16/22/1
f 5/25/1 38/27/1 37/23/1
f 40/28/1 17/26/1 41/24/1
f 4/29/1 38/27/1 5/25/1
f 40/28/1 18/30/1 17/26/1
f 4/29/1 39/31/1 38/27/1
f 39/31/1 18/30/1 40/28/1
f 4/29/1 18/30/1 39/31/1
f 3/32/1 18/30/1 4/29/1
f 3/32/1 19/33/1 18/30/1
f 2/34/1 19/33/1 3/32/1
f 2/34/1 20/35/1 19/33/1
f 1/36/1 65/37/1 2/34/1
f 65/37/1 20/35/1 2/34/1
f 65/37/1 21/38/1 20/35/1
f 1/36/1 66/39/1 65/37/1
f 64/40/1 21/38/1 65/37/1
f 1/36/1 49/41/1 66/39/1
f 63/42/1 21/38/1 64/40/1
f 32/43/1 49/41/1 1/36/1
f 63/42/1 22/44/1 21/38/1
f 32/43/1 50/45/1 49/41/1
f 62/46/1 22/44/1 63/42/1
f 31/47/1 50/45/1 32/43/1
f 62/46/1 23/48/1 22/44/1
f 31/47/1 51/49/1 50/45/1
f 61/50/1 23/48/1 62/46/1
f 30/51/1 51/49/1 31/47/1
f 30/51/1 52/52/1 51/49/1
f 61/50/1 24/53/1 23/48/1
f 60/54/1 24/53/1 61/50/1
f 30/51/1 53/55/1 52/52/1
f 59/56/1 24/53/1 60/54/1
f 30/51/1 54/57/1 53/55/1
f 29/58/1 54/57/1 30/51/1
f 59/56/1 25/59/1 24/53/1
f 29/58/1 55/60/1 54/57/1
f 58/61/1 25/59/1 59/56/1
f 29/58/1 56/62/1 55/60/1
f 57/63/1 25/59/1 58/61/1
f 29/58/1 57/63/1 56/62/1
f 29/58/1 25/59/1 57/63/1
f 28/64/1 25/59/1 29/58/1
f 28/64/1 26/65/1 25/59/1
f 27/66/1 26/65/1 28/64/1
f 78/67/2 76/68/2 77/69/2
f 78/67/2 75/70/2 76/68/2
f 79/71/2 75/70/2 78/67/2
f 114/72/2 74/73/2 75/70/2
f 113/74/2 114/72/2 75/70/2
f 79/71/2 113/74/2 75/70/2
f 112/75/2 113/74/2 79/71/2
f 80/76/2 112/75/2 79/71/2
f 99/77/2 74/73/2 114/72/2
f 80/76/2 111/78/2 112/75/2
f 100/79/2 74/73/2 99/77/2
f 80/76/2 110/80/2 111/78/2
f 100/79/2 73/81/2 74/73/2
f 81/82/2 110/80/2 80/76/2
f 101/83/2 73/81/2 100/79/2
f 81/82/2 109/84/2 110/80/2
f 102/85/2 73/81/2 101/83/2
f 102/85/2 72/86/2 73/81/2
f 81/82/2 108/87/2 109/84/2
f 82/88/2 108/87/2 81/82/2
f 103/89/2 72/86/2 102/85/2
f 82/88/2 107/90/2 108/87/2
f 103/89/2 71/91/2 72/86/2
f 83/92/2 107/90/2 82/88/2
f 104/93/2 71/91/2 103/89/2
f 83/92/2 106/94/2 107/90/2
f 104/93/2 70/95/2 71/91/2
f 84/96/2 106/94/2 83/92/2
f 105/97/2 70/95/2 104/93/2
f 84/96/2 105/97/2 106/94/2
f 84/96/2 70/95/2 105/97/2
f 84/96/2 69/98/2 70/95/2
f 85/99/2 69/98/2 84/96/2
f 85/99/2 68/100/2 69/98/2
f 86/101/2 68/100/2 85/99/2
f 131/102/2 67/103/2 68/100/2
f 86/101/2 131/102/2 68/100/2
f 87/104/2 131/102/2 86/101/2
f 132/105/2 67/103/2 131/102/2
f 87/104/2 130/106/2 131/102/2
f 115/107/2 67/103/2 132/105/2
f 87/104/2 129/108/2 130/106/2
f 115/107/2 98/109/2 67/103/2
f 88/110/2 129/108/2 87/104/2
f 116/111/2 98/109/2 115/107/2
f 88/110/2 128/112/2 129/108/2
f 116/111/2 97/113/2 98/109/2
f 89/114/2 128/112/2 88/110/2
f 117/115/2 97/113/2 116/111/2
f 89/114/2 127/116/2 128/112/2
f 117/115/2 96/117/2 97/113/2
f 118/118/2 96/117/2 117/115/2
f 90/119/2 127/116/2 89/114/2
f 90/119/2 126/120/2 127/116/2
f 119/121/2 96/117/2 118/118/2
f 90/119/2 125/122/2 126/120/2
f 120/123/2 96/117/2 119/121/2
f 120/123/2 95/124/2 96/117/2
f 91/125/2 125/122/2 90/119/2
f 121/126/2 95/124/2 120/123/2
f 91/125/2 124/127/2 125/122/2
f 122/128/2 95/124/2 121/126/2
f 91/125/2 123/129/2 124/127/2
f 123/129/2 95/124/2 122/128/2
f 91/125/2 95/124/2 123/129/2
f 91/125/2 94/130/2 95/124/2
f 92/131/2 94/130/2 91/125/2
f 92/131/2 93/132/2 94/130/2
s 137
f 134/133/3 136/134/4 135/135/4 133/136/3
f 136/134/4 138/137/5 137/138/5 135/135/4
f 138/137/5 140/139/6 139/140/6 137/138/5
f 140/139/6 142/141/7 141/142/7 139/140/6
f 142/141/7 144/143/8 143/144/8 141/142/7
f 144/143/8 146/145/9 145/146/9 143/144/8
f 146/145/9 148/147/10 147/148/10 145/146/9
f 148/147/10 150/149/11 149/150/11 147/148/10
f 150/149/11 152/151/12 151/152/12 149/150/11
f 152/151/12 154/153/13 153/154/13 151/152/12
f 154/153/13 156/155/14 155/156/14 153/154/13
f 156/155/14 158/157/15 157/158/15 155/156/14
f 158/157/15 160/159/16 159/160/16 157/158/15
f 160/159/16 162/161/17 161/162/17 159/160/16
f 162/161/17 164/163/18 163/164/18 161/162/17
f 164/163/18 166/165/19 165/166/19 163/164/18
f 166/165/19 168/167/20 167/168/20 165/166/19
f 168/167/20 170/169/21 169/170/21 167/168/20
f 170/169/21 172/171/22 171/172/22 169/170/21
f 172/171/22 174/173/23 173/174/23 171/172/22
f 174/173/23 176/175/24 175/176/24 173/174/23
f 176/175/24 178/177/25 177/178/25 175/176/24
f 178/177/25 180/179/26 179/180/26 177/178/25
f 180/179/26 182/181/27 181/182/27 179/180/26
f 182/181/27 184/183/28 183/184/28 181/182/27
f 184/183/28 186/185/29 185/186/29 183/184/28
f 186/185/29 188/187/30 187/188/30 185/186/29
f 188/187/30 190/189/31 189/190/31 187/188/30
f 190/189/31 192/191/32 191/192/32 189/190/31
f 192/191/32 194/193/33 193/194/33 191/192/32
f 194/193/33 196/195/34 195/196/34 193/194/33
f 196/195/34 134/197/3 133/198/3 195/196/34
s 138
f 198/199/35 200/200/36 199/201/36 197/202/35
f 200/200/36 202/203/37 201/204/37 199/201/36
f 202/203/37 204/205/38 203/206/38 201/204/37
f 204/205/38 206/207/39 205/208/39 203/206/38
f 206/207/39 208/209/40 207/210/40 205/208/39
f 208/209/40 210/211/41 209/212/41 207/210/40
f 210/211/41 212/213/42 211/214/42 209/212/41
f 212/213/42 214/215/43 213/216/43 211/214/42
f 214/215/43 216/217/44 215/218/44 213/216/43
f 216/217/44 218/219/45 217/220/45 215/218/44
f 218/219/45 220/221/46 219/222/46 217/220/45
f 220/221/46 222/223/47 221/224/47 219/222/46
f 222/223/47 224/225/48 223/226/48 221/224/47
f 224/225/48 226/227/49 225/228/49 223/226/48
f 226/227/49 228/229/50 227/230/50 225/228/49
f 228/229/50 198/231/35 197/232/35 227/230/50
s 139
f 230/233/51 232/234/52 231/235/52 229/236/51
f 232/234/52 234/237/53 233/238/53 231/235/52
f 234/237/53 236/239/54 235/240/54 233/238/53
f 236/239/54 238/241/55 237/242/55 235/240/54
f 238/241/55 240/243/56 239/244/56 237/242/55
f 240/243/56 242/245/57 241/246/57 239/244/56
f 242/245/57 244/247/58 243/248/58 241/246/57
f 244/247/58 246/249/59 245/250/59 243/248/58
f 246/249/59 248/251/60 247/252/60 245/250/59
f 248/251/60 250/253/61 249/254/61 247/252/60
f 250/253/61 252/255/62 251/256/62 249/254/61
f 252/255/62 254/257/63 253/258/63 251/256/62
f 254/257/63 256/259/64 255/260/64 253/258/63
f 256/259/64 258/261/65 257/262/65 255/260/64
f 258/261/65 260/263/66 259/264/66 257/262/65
f 260/263/66 262/265/67 261/266/67 259/264/66
f 262/265/67 264/267/68 263/268/68 261/266/67
f 264/267/68 230/269/51 229/270/51 263/268/68
