# Blender v2.90.0 OBJ File: 'FLAG.blend'
# www.blender.org
mtllib FLAG.mtl
o Text
v 2.233344 0.070000 -0.021375
v 2.170500 0.070000 -0.004000
v 2.106906 0.070000 0.005875
v 2.039000 0.070000 0.009000
v 1.894109 0.070000 -0.016937
v 1.779125 0.070000 -0.089000
v 1.703328 0.070000 -0.198563
v 1.676000 0.070000 -0.337000
v 1.703938 0.070000 -0.477109
v 1.781000 0.070000 -0.589375
v 1.897063 0.070000 -0.663953
v 2.042000 0.070000 -0.691000
v 2.098672 0.070000 -0.688266
v 2.153375 0.070000 -0.678875
v 2.213141 0.070000 -0.661047
v 2.285000 0.070000 -0.633000
v 2.285000 0.070000 -0.534000
v 2.224500 0.070000 -0.563031
v 2.163250 0.070000 -0.584000
v 2.101625 0.070000 -0.596719
v 2.040000 0.070000 -0.601000
v 1.936469 0.070000 -0.581031
v 1.853000 0.070000 -0.526000
v 1.797281 0.070000 -0.443219
v 1.777000 0.070000 -0.340000
v 1.797344 0.070000 -0.235406
v 1.854250 0.070000 -0.153500
v 1.941531 0.070000 -0.100094
v 2.053000 0.070000 -0.081000
v 2.091875 0.070000 -0.083109
v 2.129250 0.070000 -0.088875
v 2.165500 0.070000 -0.097453
v 2.201000 0.070000 -0.108000
v 2.201000 0.070000 -0.248000
v 2.070000 0.070000 -0.248000
v 2.070000 0.070000 -0.336000
v 2.299000 0.070000 -0.336000
v 2.299000 0.070000 -0.047000
v 1.526000 0.070000 0.000000
v 1.435000 0.070000 -0.201000
v 1.145000 0.070000 -0.201000
v 1.059000 0.070000 0.000000
v 0.959000 0.070000 0.000000
v 1.252000 0.070000 -0.686000
v 1.321000 0.070000 -0.686000
v 1.626000 0.070000 0.000000
v 1.395000 0.070000 -0.289000
v 1.285000 0.070000 -0.536000
v 1.183000 0.070000 -0.289000
v 0.949000 0.070000 -0.088000
v 0.949000 0.070000 0.000000
v 0.543000 0.070000 0.000000
v 0.543000 0.070000 -0.682000
v 0.641000 0.070000 -0.682000
v 0.641000 0.070000 -0.088000
v 0.174000 0.070000 -0.594000
v 0.174000 0.070000 -0.405000
v 0.440000 0.070000 -0.405000
v 0.440000 0.070000 -0.317000
v 0.174000 0.070000 -0.317000
v 0.174000 0.070000 0.000000
v 0.076000 0.070000 0.000000
v 0.076000 0.070000 -0.682000
v 0.440000 0.070000 -0.682000
v 0.440000 0.070000 -0.594000
v 2.233344 -0.070000 -0.021375
v 2.170500 -0.070000 -0.004000
v 2.106906 -0.070000 0.005875
v 2.039000 -0.070000 0.009000
v 1.894109 -0.070000 -0.016937
v 1.779125 -0.070000 -0.089000
v 1.703328 -0.070000 -0.198563
v 1.676000 -0.070000 -0.337000
v 1.703938 -0.070000 -0.477109
v 1.781000 -0.070000 -0.589375
v 1.897063 -0.070000 -0.663953
v 2.042000 -0.070000 -0.691000
v 2.098672 -0.070000 -0.688266
v 2.153375 -0.070000 -0.678875
v 2.213141 -0.070000 -0.661047
v 2.285000 -0.070000 -0.633000
v 2.285000 -0.070000 -0.534000
v 2.224500 -0.070000 -0.563031
v 2.163250 -0.070000 -0.584000
v 2.101625 -0.070000 -0.596719
v 2.040000 -0.070000 -0.601000
v 1.936469 -0.070000 -0.581031
v 1.853000 -0.070000 -0.526000
v 1.797281 -0.070000 -0.443219
v 1.777000 -0.070000 -0.340000
v 1.797344 -0.070000 -0.235406
v 1.854250 -0.070000 -0.153500
v 1.941531 -0.070000 -0.100094
v 2.053000 -0.070000 -0.081000
v 2.091875 -0.070000 -0.083109
v 2.129250 -0.070000 -0.088875
v 2.165500 -0.070000 -0.097453
v 2.201000 -0.070000 -0.108000
v 2.201000 -0.070000 -0.248000
v 2.070000 -0.070000 -0.248000
v 2.070000 -0.070000 -0.336000
v 2.299000 -0.070000 -0.336000
v 2.299000 -0.070000 -0.047000
v 1.526000 -0.070000 0.000000
v 1.435000 -0.070000 -0.201000
v 1.145000 -0.070000 -0.201000
v 1.059000 -0.070000 0.000000
v 0.959000 -0.070000 0.000000
v 1.252000 -0.070000 -0.686000
v 1.321000 -0.070000 -0.686000
v 1.626000 -0.070000 0.000000
v 1.395000 -0.070000 -0.289000
v 1.285000 -0.070000 -0.536000
v 1.183000 -0.070000 -0.289000
v 0.949000 -0.070000 -0.088000
v 0.949000 -0.070000 0.000000
v 0.543000 -0.070000 0.000000
v 0.543000 -0.070000 -0.682000
v 0.641000 -0.070000 -0.682000
v 0.641000 -0.070000 -0.088000
v 0.174000 -0.070000 -0.594000
v 0.174000 -0.070000 -0.405000
v 0.440000 -0.070000 -0.405000
v 0.440000 -0.070000 -0.317000
v 0.174000 -0.070000 -0.317000
v 0.174000 -0.070000 0.000000
v 0.076000 -0.070000 0.000000
v 0.076000 -0.070000 -0.682000
v 0.440000 -0.070000 -0.682000
v 0.440000 -0.070000 -0.594000
v 0.174000 -0.070000 -0.594000
v 0.174000 0.070000 -0.594000
v 0.174000 -0.070000 -0.405000
v 0.174000 0.070000 -0.405000
v 0.440000 -0.070000 -0.405000
v 0.440000 0.070000 -0.405000
v 0.440000 -0.070000 -0.317000
v 0.440000 0.070000 -0.317000
v 0.174000 -0.070000 -0.317000
v 0.174000 0.070000 -0.317000
v 0.174000 -0.070000 0.000000
v 0.174000 0.070000 0.000000
v 0.076000 -0.070000 0.000000
v 0.076000 0.070000 0.000000
v 0.076000 -0.070000 -0.682000
v 0.076000 0.070000 -0.682000
v 0.440000 -0.070000 -0.682000
v 0.440000 0.070000 -0.682000
v 0.440000 -0.070000 -0.594000
v 0.440000 0.070000 -0.594000
v 0.949000 -0.070000 -0.088000
v 0.949000 0.070000 -0.088000
v 0.949000 -0.070000 0.000000
v 0.949000 0.070000 0.000000
v 0.543000 -0.070000 0.000000
v 0.543000 0.070000 0.000000
v 0.543000 -0.070000 -0.682000
v 0.543000 0.070000 -0.682000
v 0.641000 -0.070000 -0.682000
v 0.641000 0.070000 -0.682000
v 0.641000 -0.070000 -0.088000
v 0.641000 0.070000 -0.088000
v 1.526000 -0.070000 0.000000
v 1.526000 0.070000 0.000000
v 1.435000 -0.070000 -0.201000
v 1.435000 0.070000 -0.201000
v 1.145000 -0.070000 -0.201000
v 1.145000 0.070000 -0.201000
v 1.059000 -0.070000 0.000000
v 1.059000 0.070000 0.000000
v 0.959000 -0.070000 0.000000
v 0.959000 0.070000 0.000000
v 1.252000 -0.070000 -0.686000
v 1.252000 0.070000 -0.686000
v 1.321000 -0.070000 -0.686000
v 1.321000 0.070000 -0.686000
v 1.626000 -0.070000 0.000000
v 1.626000 0.070000 0.000000
v 1.395000 -0.070000 -0.289000
v 1.395000 0.070000 -0.289000
v 1.285000 -0.070000 -0.536000
v 1.285000 0.070000 -0.536000
v 1.183000 -0.070000 -0.289000
v 1.183000 0.070000 -0.289000
v 2.233344 -0.070000 -0.021375
v 2.233344 0.070000 -0.021375
v 2.170500 -0.070000 -0.004000
v 2.170500 0.070000 -0.004000
v 2.106906 -0.070000 0.005875
v 2.106906 0.070000 0.005875
v 2.039000 -0.070000 0.009000
v 2.039000 0.070000 0.009000
v 1.894109 -0.070000 -0.016937
v 1.894109 0.070000 -0.016937
v 1.779125 -0.070000 -0.089000
v 1.779125 0.070000 -0.089000
v 1.703328 -0.070000 -0.198563
v 1.703328 0.070000 -0.198563
v 1.676000 -0.070000 -0.337000
v 1.676000 0.070000 -0.337000
v 1.703938 -0.070000 -0.477109
v 1.703938 0.070000 -0.477109
v 1.781000 -0.070000 -0.589375
v 1.781000 0.070000 -0.589375
v 1.897063 -0.070000 -0.663953
v 1.897063 0.070000 -0.663953
v 2.042000 -0.070000 -0.691000
v 2.042000 0.070000 -0.691000
v 2.098672 -0.070000 -0.688266
v 2.098672 0.070000 -0.688266
v 2.153375 -0.070000 -0.678875
v 2.153375 0.070000 -0.678875
v 2.213141 -0.070000 -0.661047
v 2.213141 0.070000 -0.661047
v 2.285000 -0.070000 -0.633000
v 2.285000 0.070000 -0.633000
v 2.285000 -0.070000 -0.534000
v 2.285000 0.070000 -0.534000
v 2.224500 -0.070000 -0.563031
v 2.224500 0.070000 -0.563031
v 2.163250 -0.070000 -0.584000
v 2.163250 0.070000 -0.584000
v 2.101625 -0.070000 -0.596719
v 2.101625 0.070000 -0.596719
v 2.040000 -0.070000 -0.601000
v 2.040000 0.070000 -0.601000
v 1.936469 -0.070000 -0.581031
v 1.936469 0.070000 -0.581031
v 1.853000 -0.070000 -0.526000
v 1.853000 0.070000 -0.526000
v 1.797281 -0.070000 -0.443219
v 1.797281 0.070000 -0.443219
v 1.777000 -0.070000 -0.340000
v 1.777000 0.070000 -0.340000
v 1.797344 -0.070000 -0.235406
v 1.797344 0.070000 -0.235406
v 1.854250 -0.070000 -0.153500
v 1.854250 0.070000 -0.153500
v 1.941531 -0.070000 -0.100094
v 1.941531 0.070000 -0.100094
v 2.053000 -0.070000 -0.081000
v 2.053000 0.070000 -0.081000
v 2.091875 -0.070000 -0.083109
v 2.091875 0.070000 -0.083109
v 2.129250 -0.070000 -0.088875
v 2.129250 0.070000 -0.088875
v 2.165500 -0.070000 -0.097453
v 2.165500 0.070000 -0.097453
v 2.201000 -0.070000 -0.108000
v 2.201000 0.070000 -0.108000
v 2.201000 -0.070000 -0.248000
v 2.201000 0.070000 -0.248000
v 2.070000 -0.070000 -0.248000
v 2.070000 0.070000 -0.248000
v 2.070000 -0.070000 -0.336000
v 2.070000 0.070000 -0.336000
v 2.299000 -0.070000 -0.336000
v 2.299000 0.070000 -0.336000
v 2.299000 -0.070000 -0.047000
v 2.299000 0.070000 -0.047000
vt 0.270270 0.000000
vt 0.324324 0.000000
vt 0.297297 0.000000
vt 0.351351 0.000000
vt 0.378378 0.000000
vt 0.243243 0.000000
vt 0.405405 0.000000
vt 0.540541 0.000000
vt 0.513514 0.000000
vt 0.486486 0.000000
vt 0.459459 0.000000
vt 0.432432 0.000000
vt 0.567568 0.000000
vt 0.216216 0.000000
vt 0.594595 0.000000
vt 0.621622 0.000000
vt 0.189189 0.000000
vt 0.648649 0.000000
vt 0.675676 0.000000
vt 0.162162 0.000000
vt 0.918919 0.000000
vt 0.972973 0.000000
vt 0.945946 0.000000
vt 0.891892 0.000000
vt 1.000000 0.000000
vt 0.864865 0.000000
vt 0.702703 0.000000
vt 0.135135 0.000000
vt 0.729730 0.000000
vt 0.837838 0.000000
vt 0.756757 0.000000
vt 0.810811 0.000000
vt 0.108108 0.000000
vt 0.783784 0.000000
vt 0.000000 0.000000
vt 0.027027 0.000000
vt 0.081081 0.000000
vt 0.054054 0.000000
vt 0.400000 0.000000
vt 0.600000 0.000000
vt 0.500000 0.000000
vt 0.900000 0.000000
vt 0.700000 0.000000
vt 1.000000 0.000000
vt 0.800000 0.000000
vt 0.200000 0.000000
vt 0.100000 0.000000
vt 0.300000 0.000000
vt 0.000000 0.000000
vt 0.400000 0.000000
vt 0.800000 0.000000
vt 0.600000 0.000000
vt 1.000000 0.000000
vt 0.000000 0.000000
vt 0.200000 0.000000
vt 0.666667 0.000000
vt 0.000000 0.000000
vt 0.777778 0.000000
vt 0.888889 0.000000
vt 1.000000 0.000000
vt 0.111111 0.000000
vt 0.444444 0.000000
vt 0.222222 0.000000
vt 0.333333 0.000000
vt 0.555556 0.000000
vt 0.324324 0.000000
vt 0.270270 0.000000
vt 0.297297 0.000000
vt 0.351351 0.000000
vt 0.378378 0.000000
vt 0.243243 0.000000
vt 0.405405 0.000000
vt 0.540541 0.000000
vt 0.513514 0.000000
vt 0.486486 0.000000
vt 0.459459 0.000000
vt 0.432432 0.000000
vt 0.567568 0.000000
vt 0.216216 0.000000
vt 0.594595 0.000000
vt 0.621622 0.000000
vt 0.189189 0.000000
vt 0.648649 0.000000
vt 0.675676 0.000000
vt 0.162162 0.000000
vt 0.972973 0.000000
vt 0.918919 0.000000
vt 0.945946 0.000000
vt 0.891892 0.000000
vt 1.000000 0.000000
vt 0.864865 0.000000
vt 0.702703 0.000000
vt 0.135135 0.000000
vt 0.729730 0.000000
vt 0.837838 0.000000
vt 0.756757 0.000000
vt 0.810811 0.000000
vt 0.108108 0.000000
vt 0.783784 0.000000
vt 0.000000 0.000000
vt 0.027027 0.000000
vt 0.081081 0.000000
vt 0.054054 0.000000
vt 0.600000 0.000000
vt 0.400000 0.000000
vt 0.500000 0.000000
vt 0.900000 0.000000
vt 0.700000 0.000000
vt 1.000000 0.000000
vt 0.800000 0.000000
vt 0.200000 0.000000
vt 0.100000 0.000000
vt 0.300000 0.000000
vt 0.000000 0.000000
vt 0.800000 0.000000
vt 0.400000 0.000000
vt 0.600000 0.000000
vt 1.000000 0.000000
vt 0.000000 0.000000
vt 0.200000 0.000000
vt 0.000000 0.000000
vt 0.666667 0.000000
vt 0.777778 0.000000
vt 0.888889 0.000000
vt 1.000000 0.000000
vt 0.111111 0.000000
vt 0.444444 0.000000
vt 0.222222 0.000000
vt 0.333333 0.000000
vt 0.555556 0.000000
vt 0.000000 1.000000
vt 0.100000 1.000000
vt 0.100000 0.000000
vt 0.000000 0.000000
vt 0.200000 1.000000
vt 0.200000 0.000000
vt 0.300000 1.000000
vt 0.300000 0.000000
vt 0.400000 1.000000
vt 0.400000 0.000000
vt 0.500000 1.000000
vt 0.500000 0.000000
vt 0.600000 1.000000
vt 0.600000 0.000000
vt 0.700000 1.000000
vt 0.700000 0.000000
vt 0.800000 1.000000
vt 0.800000 0.000000
vt 0.900000 1.000000
vt 0.900000 0.000000
vt 1.000000 1.000000
vt 1.000000 0.000000
vt 0.000000 1.000000
vt 0.166667 1.000000
vt 0.166667 0.000000
vt 0.000000 0.000000
vt 0.333333 1.000000
vt 0.333333 0.000000
vt 0.500000 1.000000
vt 0.500000 0.000000
vt 0.666667 1.000000
vt 0.666667 0.000000
vt 0.833333 1.000000
vt 0.833333 0.000000
vt 1.000000 1.000000
vt 1.000000 0.000000
vt 0.000000 1.000000
vt 0.125000 1.000000
vt 0.125000 0.000000
vt 0.000000 0.000000
vt 0.250000 1.000000
vt 0.250000 0.000000
vt 0.375000 1.000000
vt 0.375000 0.000000
vt 0.500000 1.000000
vt 0.500000 0.000000
vt 0.625000 1.000000
vt 0.625000 0.000000
vt 0.750000 1.000000
vt 0.750000 0.000000
vt 0.875000 1.000000
vt 0.875000 0.000000
vt 1.000000 1.000000
vt 1.000000 0.000000
vt 0.000000 1.000000
vt 0.333333 1.000000
vt 0.333333 0.000000
vt 0.000000 0.000000
vt 0.666667 1.000000
vt 0.666667 0.000000
vt 1.000000 1.000000
vt 1.000000 0.000000
vt 0.000000 1.000000
vt 0.026316 1.000000
vt 0.026316 0.000000
vt 0.000000 0.000000
vt 0.052632 1.000000
vt 0.052632 0.000000
vt 0.078947 1.000000
vt 0.078947 0.000000
vt 0.105263 1.000000
vt 0.105263 0.000000
vt 0.131579 1.000000
vt 0.131579 0.000000
vt 0.157895 1.000000
vt 0.157895 0.000000
vt 0.184211 1.000000
vt 0.184211 0.000000
vt 0.210526 1.000000
vt 0.210526 0.000000
vt 0.236842 1.000000
vt 0.236842 0.000000
vt 0.263158 1.000000
vt 0.263158 0.000000
vt 0.289474 1.000000
vt 0.289474 0.000000
vt 0.315789 1.000000
vt 0.315789 0.000000
vt 0.342105 1.000000
vt 0.342105 0.000000
vt 0.368421 1.000000
vt 0.368421 0.000000
vt 0.394737 1.000000
vt 0.394737 0.000000
vt 0.421053 1.000000
vt 0.421053 0.000000
vt 0.447368 1.000000
vt 0.447368 0.000000
vt 0.473684 1.000000
vt 0.473684 0.000000
vt 0.500000 1.000000
vt 0.500000 0.000000
vt 0.526316 1.000000
vt 0.526316 0.000000
vt 0.552632 1.000000
vt 0.552632 0.000000
vt 0.578947 1.000000
vt 0.578947 0.000000
vt 0.605263 1.000000
vt 0.605263 0.000000
vt 0.631579 1.000000
vt 0.631579 0.000000
vt 0.657895 1.000000
vt 0.657895 0.000000
vt 0.684211 1.000000
vt 0.684211 0.000000
vt 0.710526 1.000000
vt 0.710526 0.000000
vt 0.736842 1.000000
vt 0.736842 0.000000
vt 0.763158 1.000000
vt 0.763158 0.000000
vt 0.789474 1.000000
vt 0.789474 0.000000
vt 0.815789 1.000000
vt 0.815789 0.000000
vt 0.842105 1.000000
vt 0.842105 0.000000
vt 0.868421 1.000000
vt 0.868421 0.000000
vt 0.894737 1.000000
vt 0.894737 0.000000
vt 0.921053 1.000000
vt 0.921053 0.000000
vt 0.947368 1.000000
vt 0.947368 0.000000
vt 0.973684 1.000000
vt 0.973684 0.000000
vt 1.000000 1.000000
vt 1.000000 0.000000
vn 0.0000 1.0000 0.0000
vn 0.0000 -1.0000 0.0000
vn 0.7071 0.0000 0.7071
vn 0.7071 0.0000 -0.7071
vn -0.7071 0.0000 0.7071
vn -0.7071 0.0000 -0.7071
vn -0.5420 0.0000 0.8404
vn 0.5507 0.0000 0.8347
vn -0.8345 0.0000 0.5510
vn -0.5510 0.0000 -0.8345
vn 0.5448 0.0000 -0.8385
vn 0.8385 0.0000 0.5448
vn -0.8387 0.0000 -0.5446
vn 0.0137 0.0000 0.9999
vn 0.8311 0.0000 -0.5560
vn 0.3154 0.0000 0.9489
vn 0.2103 0.0000 0.9776
vn 0.0998 0.0000 0.9950
vn -0.0655 0.0000 0.9978
vn -0.3602 0.0000 0.9329
vn -0.6909 0.0000 0.7230
vn -0.9210 0.0000 0.3894
vn -1.0000 0.0000 -0.0009
vn -0.9214 0.0000 -0.3887
vn -0.6962 0.0000 -0.7178
vn -0.3689 0.0000 -0.9295
vn -0.0681 0.0000 -0.9977
vn 0.1089 0.0000 -0.9940
vn 0.2279 0.0000 -0.9737
vn 0.3250 0.0000 -0.9457
vn 0.8257 0.0000 -0.5641
vn 0.5326 0.0000 0.8463
vn -0.3789 0.0000 0.9254
vn -0.2635 0.0000 0.9646
vn -0.1360 0.0000 0.9907
vn 0.0605 0.0000 0.9981
vn 0.3771 0.0000 0.9261
vn 0.7037 0.0000 0.7105
vn 0.9237 0.0000 0.3832
vn 1.0000 0.0000 0.0009
vn 0.9212 0.0000 -0.3891
vn 0.6863 0.0000 -0.7273
vn 0.3517 0.0000 -0.9361
vn 0.0577 0.0000 -0.9983
vn -0.1034 0.0000 -0.9946
vn -0.1915 0.0000 -0.9815
vn -0.2576 0.0000 -0.9662
vn -0.8015 0.0000 -0.5980
vn 0.8257 0.0000 0.5641
usemtl None
s off
f 11/1/1 13/2/1 12/3/1
f 11/1/1 14/4/1 13/2/1
f 11/1/1 15/5/1 14/4/1
f 10/6/1 15/5/1 11/1/1
f 10/6/1 16/7/1 15/5/1
f 10/6/1 21/8/1 16/7/1
f 21/8/1 20/9/1 16/7/1
f 20/9/1 19/10/1 16/7/1
f 19/10/1 18/11/1 16/7/1
f 18/11/1 17/12/1 16/7/1
f 10/6/1 22/13/1 21/8/1
f 9/14/1 22/13/1 10/6/1
f 9/14/1 23/15/1 22/13/1
f 9/14/1 24/16/1 23/15/1
f 8/17/1 24/16/1 9/14/1
f 8/17/1 25/18/1 24/16/1
f 8/17/1 26/19/1 25/18/1
f 7/20/1 26/19/1 8/17/1
f 35/21/1 37/22/1 36/23/1
f 35/21/1 34/24/1 37/22/1
f 34/24/1 38/25/1 37/22/1
f 33/26/1 38/25/1 34/24/1
f 7/20/1 27/27/1 26/19/1
f 6/28/1 27/27/1 7/20/1
f 6/28/1 28/29/1 27/27/1
f 32/30/1 38/25/1 33/26/1
f 6/28/1 29/31/1 28/29/1
f 31/32/1 38/25/1 32/30/1
f 5/33/1 29/31/1 6/28/1
f 30/34/1 38/25/1 31/32/1
f 29/31/1 38/25/1 30/34/1
f 5/33/1 38/25/1 29/31/1
f 5/33/1 1/35/1 38/25/1
f 5/33/1 2/36/1 1/35/1
f 4/37/1 2/36/1 5/33/1
f 4/37/1 3/38/1 2/36/1
f 43/39/1 45/40/1 44/41/1
f 43/39/1 48/42/1 45/40/1
f 48/42/1 46/43/1 45/40/1
f 43/39/1 49/44/1 48/42/1
f 47/45/1 46/43/1 48/42/1
f 43/39/1 41/46/1 49/44/1
f 41/46/1 47/45/1 49/44/1
f 41/46/1 40/47/1 47/45/1
f 40/47/1 46/43/1 47/45/1
f 43/39/1 42/48/1 41/46/1
f 39/49/1 46/43/1 40/47/1
f 52/50/1 54/51/1 53/52/1
f 52/50/1 55/53/1 54/51/1
f 52/50/1 50/54/1 55/53/1
f 52/50/1 51/55/1 50/54/1
f 62/56/1 56/57/1 63/58/1
f 56/57/1 64/59/1 63/58/1
f 56/57/1 65/60/1 64/59/1
f 62/56/1 57/61/1 56/57/1
f 62/56/1 60/62/1 57/61/1
f 60/62/1 58/63/1 57/61/1
f 60/62/1 59/64/1 58/63/1
f 62/56/1 61/65/1 60/62/1
f 78/66/2 76/67/2 77/68/2
f 79/69/2 76/67/2 78/66/2
f 80/70/2 76/67/2 79/69/2
f 80/70/2 75/71/2 76/67/2
f 81/72/2 75/71/2 80/70/2
f 86/73/2 75/71/2 81/72/2
f 85/74/2 86/73/2 81/72/2
f 84/75/2 85/74/2 81/72/2
f 83/76/2 84/75/2 81/72/2
f 82/77/2 83/76/2 81/72/2
f 87/78/2 75/71/2 86/73/2
f 87/78/2 74/79/2 75/71/2
f 88/80/2 74/79/2 87/78/2
f 89/81/2 74/79/2 88/80/2
f 89/81/2 73/82/2 74/79/2
f 90/83/2 73/82/2 89/81/2
f 91/84/2 73/82/2 90/83/2
f 91/84/2 72/85/2 73/82/2
f 102/86/2 100/87/2 101/88/2
f 99/89/2 100/87/2 102/86/2
f 103/90/2 99/89/2 102/86/2
f 103/90/2 98/91/2 99/89/2
f 92/92/2 72/85/2 91/84/2
f 92/92/2 71/93/2 72/85/2
f 93/94/2 71/93/2 92/92/2
f 103/90/2 97/95/2 98/91/2
f 94/96/2 71/93/2 93/94/2
f 103/90/2 96/97/2 97/95/2
f 94/96/2 70/98/2 71/93/2
f 103/90/2 95/99/2 96/97/2
f 103/90/2 94/96/2 95/99/2
f 103/90/2 70/98/2 94/96/2
f 66/100/2 70/98/2 103/90/2
f 67/101/2 70/98/2 66/100/2
f 67/101/2 69/102/2 70/98/2
f 68/103/2 69/102/2 67/101/2
f 110/104/2 108/105/2 109/106/2
f 113/107/2 108/105/2 110/104/2
f 111/108/2 113/107/2 110/104/2
f 114/109/2 108/105/2 113/107/2
f 111/108/2 112/110/2 113/107/2
f 106/111/2 108/105/2 114/109/2
f 112/110/2 106/111/2 114/109/2
f 105/112/2 106/111/2 112/110/2
f 111/108/2 105/112/2 112/110/2
f 107/113/2 108/105/2 106/111/2
f 111/108/2 104/114/2 105/112/2
f 119/115/2 117/116/2 118/117/2
f 120/118/2 117/116/2 119/115/2
f 115/119/2 117/116/2 120/118/2
f 116/120/2 117/116/2 115/119/2
f 121/121/2 127/122/2 128/123/2
f 129/124/2 121/121/2 128/123/2
f 130/125/2 121/121/2 129/124/2
f 122/126/2 127/122/2 121/121/2
f 125/127/2 127/122/2 122/126/2
f 123/128/2 125/127/2 122/126/2
f 124/129/2 125/127/2 123/128/2
f 126/130/2 127/122/2 125/127/2
s 119
f 132/131/3 134/132/4 133/133/4 131/134/3
f 134/132/4 136/135/4 135/136/4 133/133/4
f 136/135/4 138/137/3 137/138/3 135/136/4
f 138/137/3 140/139/3 139/140/3 137/138/3
f 140/139/3 142/141/3 141/142/3 139/140/3
f 142/141/3 144/143/5 143/144/5 141/142/3
f 144/143/5 146/145/6 145/146/6 143/144/5
f 146/145/6 148/147/4 147/148/4 145/146/6
f 148/147/4 150/149/3 149/150/3 147/148/4
f 150/149/3 132/151/3 131/152/3 149/150/3
s 120
f 152/153/4 154/154/3 153/155/3 151/156/4
f 154/154/3 156/157/5 155/158/5 153/155/3
f 156/157/5 158/159/6 157/160/6 155/158/5
f 158/159/6 160/161/4 159/162/4 157/160/6
f 160/161/4 162/163/4 161/164/4 159/162/4
f 162/163/4 152/165/4 151/166/4 161/164/4
s 121
f 164/167/7 166/168/7 165/169/7 163/170/7
f 166/168/7 168/171/8 167/172/8 165/169/7
f 168/171/8 170/173/8 169/174/8 167/172/8
f 170/173/8 172/175/9 171/176/9 169/174/8
f 172/175/9 174/177/10 173/178/10 171/176/9
f 174/177/10 176/179/11 175/180/11 173/178/10
f 176/179/11 178/181/12 177/182/12 175/180/11
f 178/181/12 164/183/7 163/184/7 177/182/12
s 122
f 180/185/13 182/186/14 181/187/14 179/188/13
f 182/186/14 184/189/15 183/190/15 181/187/14
f 184/189/15 180/191/13 179/192/13 183/190/15
s 123
f 186/193/16 188/194/17 187/195/17 185/196/16
f 188/194/17 190/197/18 189/198/18 187/195/17
f 190/197/18 192/199/19 191/200/19 189/198/18
f 192/199/19 194/201/20 193/202/20 191/200/19
f 194/201/20 196/203/21 195/204/21 193/202/20
f 196/203/21 198/205/22 197/206/22 195/204/21
f 198/205/22 200/207/23 199/208/23 197/206/22
f 200/207/23 202/209/24 201/210/24 199/208/23
f 202/209/24 204/211/25 203/212/25 201/210/24
f 204/211/25 206/213/26 205/214/26 203/212/25
f 206/213/26 208/215/27 207/216/27 205/214/26
f 208/215/27 210/217/28 209/218/28 207/216/27
f 210/217/28 212/219/29 211/220/29 209/218/28
f 212/219/29 214/221/30 213/222/30 211/220/29
f 214/221/30 216/223/31 215/224/31 213/222/30
f 216/223/31 218/225/32 217/226/32 215/224/31
f 218/225/32 220/227/33 219/228/33 217/226/32
f 220/227/33 222/229/34 221/230/34 219/228/33
f 222/229/34 224/231/35 223/232/35 221/230/34
f 224/231/35 226/233/36 225/234/36 223/232/35
f 226/233/36 228/235/37 227/236/37 225/234/36
f 228/235/37 230/237/38 229/238/38 227/236/37
f 230/237/38 232/239/39 231/240/39 229/238/38
f 232/239/39 234/241/40 233/242/40 231/240/39
f 234/241/40 236/243/41 235/244/41 233/242/40
f 236/243/41 238/245/42 237/246/42 235/244/41
f 238/245/42 240/247/43 239/248/43 237/246/42
f 240/247/43 242/249/44 241/250/44 239/248/43
f 242/249/44 244/251/45 243/252/45 241/250/44
f 244/251/45 246/253/46 245/254/46 243/252/45
f 246/253/46 248/255/47 247/256/47 245/254/46
f 248/255/47 250/257/48 249/258/48 247/256/47
f 250/257/48 252/259/5 251/260/5 249/258/48
f 252/259/5 254/261/5 253/262/5 251/260/5
f 254/261/5 256/263/6 255/264/6 253/262/5
f 256/263/6 258/265/4 257/266/4 255/264/6
f 258/265/4 260/267/49 259/268/49 257/266/4
f 260/267/49 186/269/16 185/270/16 259/268/49
